# Blender v3.0.0 OBJ File: 'Ğ–ÑƒĞº 1.blend'
# www.blender.org
mtllib beatle 1.mtl
o Cube
v -0.335974 -0.027248 -0.265204
v -0.335974 -0.212058 -0.265204
v 0.382188 0.071771 -0.359081
v 0.382188 -0.646391 -0.359081
v 0.382188 -0.646391 -0.000000
v -0.335974 0.071771 0.000000
v 0.382188 0.071771 -0.000000
v -0.335974 -0.646391 0.000000
v -0.335974 0.071771 -0.359081
v -0.335974 -0.646391 -0.359081
v -0.335974 -0.027248 -0.093877
v -0.335974 -0.212058 -0.093877
v -0.304634 -0.050672 -0.115593
v -0.304634 -0.188634 -0.115593
v -0.304634 -0.050672 -0.243488
v -0.304634 -0.188634 -0.243488
v -0.335974 0.071771 -0.100105
v -0.244459 0.071771 0.000000
v -0.335974 0.071771 0.000000
v -0.244459 0.071771 -0.100105
v -0.427774 0.469430 -0.308465
v -0.429747 0.468712 -0.308465
v -0.427045 0.467426 -0.308794
v -0.429017 0.466708 -0.308794
v -0.365687 -0.504527 -0.157138
v -0.365687 -0.565425 -0.096983
v -0.365687 -0.504527 -0.096983
v -0.365687 -0.565425 -0.157138
v -0.429712 -0.565425 -0.157138
v -0.429712 -0.504527 -0.157138
v -0.429712 -0.565425 -0.096983
v -0.429712 -0.504527 -0.096983
v -0.526449 -0.565425 -0.059676
v -0.526449 -0.504527 -0.059676
v -0.526449 -0.565425 -0.058474
v -0.526449 -0.504527 -0.058474
v 0.479671 -0.342464 -0.540513
v 0.821118 -0.342464 -0.540513
v 0.479671 -0.089153 -0.753066
v 0.821118 -0.089153 -0.753066
v 0.821118 -0.952108 -1.267058
v 0.479671 -0.952108 -1.267058
v 0.479671 -0.698797 -1.479611
v 0.821118 -0.698797 -1.479611
v 0.382188 0.117984 -0.567630
v 0.382188 -0.646391 -0.753066
v 0.382188 -0.646391 -0.000000
v 0.382188 0.117984 -0.000000
v 2.289250 -0.646391 -0.000000
v 2.289250 -0.646391 -0.753066
v 2.000558 0.117984 -0.567630
v 2.000558 0.117984 -0.000000
v 0.382188 -0.089153 -0.753066
v 0.382188 -0.089153 -0.000000
v 2.289250 -0.089153 -0.753066
v 2.289250 -0.089153 -0.000000
v 0.382188 0.117984 -0.157144
v 2.000558 0.117984 -0.157144
v 2.289250 -0.089153 -0.208480
v 1.106631 -0.342464 -0.540513
v 1.448078 -0.342464 -0.540513
v 1.106631 -0.089153 -0.753066
v 1.448078 -0.089153 -0.753066
v 1.448077 -0.952108 -1.267058
v 1.106630 -0.952108 -1.267058
v 1.106630 -0.698797 -1.479611
v 1.448077 -0.698797 -1.479611
v 1.758065 -0.342464 -0.540513
v 2.099512 -0.342464 -0.540513
v 1.758065 -0.089153 -0.753066
v 2.099512 -0.089153 -0.753066
v 2.099512 -0.952108 -1.267058
v 1.758065 -0.952108 -1.267058
v 1.758065 -0.698797 -1.479611
v 2.099512 -0.698797 -1.479611
v -0.335974 -0.027248 0.265204
v -0.335974 -0.212058 0.265204
v 0.382188 0.071771 0.359081
v 0.382188 -0.646391 0.359081
v -0.335974 0.071771 0.359081
v -0.335974 -0.646391 0.359081
v -0.335974 -0.027248 0.093878
v -0.335974 -0.212058 0.093878
v -0.304634 -0.050672 0.115593
v -0.304634 -0.188634 0.115593
v -0.304634 -0.050672 0.243488
v -0.304634 -0.188634 0.243488
v -0.335974 0.071771 0.100105
v -0.244459 0.071771 0.100105
v -0.427774 0.469430 0.308466
v -0.429746 0.468712 0.308466
v -0.427045 0.467426 0.308794
v -0.429017 0.466708 0.308794
v -0.365687 -0.504527 0.157138
v -0.365687 -0.565425 0.096983
v -0.365687 -0.504527 0.096983
v -0.365687 -0.565425 0.157138
v -0.429712 -0.565425 0.157138
v -0.429712 -0.504527 0.157138
v -0.429712 -0.565425 0.096983
v -0.429712 -0.504527 0.096983
v -0.526449 -0.565425 0.059676
v -0.526449 -0.504527 0.059676
v -0.526449 -0.565425 0.058474
v -0.526449 -0.504527 0.058474
v 0.479671 -0.342464 0.540513
v 0.821118 -0.342464 0.540513
v 0.479671 -0.089153 0.753066
v 0.821118 -0.089153 0.753066
v 0.821119 -0.952108 1.267058
v 0.479671 -0.952108 1.267058
v 0.479672 -0.698797 1.479611
v 0.821119 -0.698797 1.479611
v 0.382188 0.117984 0.567630
v 0.382188 -0.646391 0.753065
v 2.289250 -0.646391 0.753065
v 2.000558 0.117984 0.567630
v 0.382188 -0.089153 0.753065
v 2.289250 -0.089153 0.753065
v 0.382188 0.117984 0.157143
v 2.000558 0.117984 0.157143
v 2.289250 -0.089153 0.208479
v 1.106631 -0.342464 0.540512
v 1.448078 -0.342464 0.540512
v 1.106631 -0.089153 0.753065
v 1.448078 -0.089153 0.753065
v 1.448078 -0.952108 1.267058
v 1.106631 -0.952108 1.267058
v 1.106631 -0.698797 1.479611
v 1.448078 -0.698797 1.479611
v 1.758065 -0.342464 0.540512
v 2.099512 -0.342464 0.540512
v 1.758065 -0.089153 0.753065
v 2.099512 -0.089153 0.753065
v 2.099512 -0.952108 1.267057
v 1.758065 -0.952108 1.267058
v 1.758065 -0.698797 1.479611
v 2.099512 -0.698797 1.479611
vt 0.568654 0.631154
vt 0.580962 0.631154
vt 0.580962 0.637308
vt 0.568654 0.637308
vt 0.556346 0.637308
vt 0.568654 0.649616
vt 0.556346 0.649616
vt 0.544038 0.631154
vt 0.556346 0.631154
vt 0.544038 0.637308
vt 0.557955 0.635699
vt 0.557955 0.632763
vt 0.557955 0.632763
vt 0.557955 0.635699
vt 0.556346 0.600384
vt 0.568654 0.600384
vt 0.568654 0.606538
vt 0.556346 0.606538
vt 0.567045 0.635699
vt 0.567045 0.632763
vt 0.768032 0.851320
vt 0.817906 0.851320
vt 0.817906 0.867430
vt 0.768032 0.867430
vt 0.567045 0.635699
vt 0.567045 0.632763
vt 0.625000 0.625000
vt 0.625000 0.750000
vt 0.875000 0.750000
vt 0.875000 0.625000
vt 0.609626 0.717648
vt 0.609626 0.692508
vt 0.609626 0.692508
vt 0.609626 0.717648
vt 0.659905 0.692508
vt 0.659905 0.692508
vt 0.659905 0.717648
vt 0.659905 0.717648
vt 0.625000 0.625000
vt 0.625000 0.750000
vt 0.875000 0.750000
vt 0.875000 0.625000
vt 0.610913 0.685339
vt 0.666430 0.685339
vt 0.666430 0.685339
vt 0.610913 0.685339
vt 0.610913 0.685339
vt 0.666430 0.685339
vt 0.610913 0.713098
vt 0.610913 0.713098
vt 0.666430 0.713098
vt 0.666430 0.713098
vt 0.666430 0.713098
vt 0.610913 0.713098
vt 0.544627 0.610149
vt 0.544627 0.610149
vt 0.553600 0.610149
vt 0.553600 0.610149
vt 0.544627 0.610149
vt 0.553600 0.610149
vt 0.553600 0.610149
vt 0.544627 0.610149
vt 0.639537 0.466162
vt 0.642873 0.466162
vt 0.642873 0.467866
vt 0.639537 0.467866
vt 0.559459 0.543743
vt 0.562795 0.543743
vt 0.562795 0.543743
vt 0.559459 0.543743
vt 0.642873 0.466162
vt 0.642873 0.467866
vt 0.550487 0.619915
vt 0.559459 0.619915
vt 0.559459 0.619915
vt 0.550487 0.619915
vt 0.550487 0.626069
vt 0.559459 0.626069
vt 0.562795 0.548193
vt 0.562795 0.548193
vt 0.559459 0.548193
vt 0.559459 0.624365
vt 0.559459 0.626069
vt 0.550487 0.626069
vt 0.559459 0.549897
vt 0.562795 0.549897
vt 0.529002 0.621868
vt 0.537975 0.621868
vt 0.537975 0.621868
vt 0.529002 0.621868
vt 0.537975 0.621868
vt 0.537975 0.621868
vt 0.529002 0.621868
vt 0.529002 0.621868
vt 0.550487 0.616009
vt 0.559459 0.616009
vt 0.559459 0.616009
vt 0.550487 0.616009
vt 0.559459 0.616009
vt 0.559459 0.616009
vt 0.550487 0.616009
vt 0.550487 0.616009
vt 0.568654 0.637308
vt 0.580962 0.637308
vt 0.556346 0.637308
vt 0.556346 0.649616
vt 0.568654 0.649616
vt 0.544038 0.637308
vt 0.557955 0.635699
vt 0.557955 0.635699
vt 0.557955 0.632763
vt 0.557955 0.632763
vt 0.556346 0.600384
vt 0.568654 0.600384
vt 0.567045 0.635699
vt 0.567045 0.632763
vt 0.768032 0.851320
vt 0.768032 0.867430
vt 0.817906 0.867430
vt 0.817906 0.851320
vt 0.567045 0.635699
vt 0.567045 0.632763
vt 0.875000 0.750000
vt 0.625000 0.750000
vt 0.609626 0.717648
vt 0.609626 0.717648
vt 0.609626 0.692508
vt 0.659905 0.692508
vt 0.659905 0.717648
vt 0.659905 0.717648
vt 0.625000 0.625000
vt 0.875000 0.625000
vt 0.875000 0.750000
vt 0.625000 0.750000
vt 0.610913 0.685339
vt 0.610913 0.685339
vt 0.666430 0.685339
vt 0.666430 0.685339
vt 0.610913 0.685339
vt 0.666430 0.685339
vt 0.610913 0.713098
vt 0.610913 0.713098
vt 0.666430 0.713098
vt 0.666430 0.713098
vt 0.610913 0.713098
vt 0.666430 0.713098
vt 0.544627 0.610149
vt 0.553600 0.610149
vt 0.553600 0.610149
vt 0.544627 0.610149
vt 0.544627 0.610149
vt 0.544627 0.610149
vt 0.553600 0.610149
vt 0.553600 0.610149
vt 0.639537 0.466162
vt 0.642873 0.466162
vt 0.559459 0.543743
vt 0.559459 0.543743
vt 0.562795 0.543743
vt 0.562795 0.543743
vt 0.642873 0.466162
vt 0.550487 0.619915
vt 0.550487 0.619915
vt 0.559459 0.619915
vt 0.559459 0.619915
vt 0.562795 0.548193
vt 0.562795 0.548193
vt 0.559459 0.548193
vt 0.559459 0.624365
vt 0.529002 0.621868
vt 0.529002 0.621868
vt 0.537975 0.621868
vt 0.537975 0.621868
vt 0.537975 0.621868
vt 0.537975 0.621868
vt 0.529002 0.621868
vt 0.529002 0.621868
vt 0.550487 0.616009
vt 0.550487 0.616009
vt 0.559459 0.616009
vt 0.559459 0.616009
vt 0.559459 0.616009
vt 0.559459 0.616009
vt 0.550487 0.616009
vt 0.550487 0.616009
vn 0.0000 1.0000 0.0000
vn -0.0000 0.0000 -1.0000
vn 0.0000 -1.0000 0.0000
vn -0.5987 0.8010 0.0000
vn 1.0000 0.0000 -0.0000
vn -1.0000 -0.0000 0.0000
vn -0.5695 0.0000 0.8220
vn -0.5695 0.0000 -0.8220
vn -0.5987 -0.8010 0.0000
vn -0.9729 -0.2311 -0.0025
vn -0.0047 0.6122 0.7907
vn 0.0036 -0.4659 -0.8848
vn 0.9085 0.4179 -0.0017
vn -0.0520 0.1429 -0.9884
vn 0.3699 -0.0000 0.9291
vn 0.0000 -0.0000 1.0000
vn -0.7097 0.0000 -0.7045
vn 0.0000 0.6428 0.7660
vn 0.0000 -0.6428 -0.7660
vn 0.0000 0.7660 -0.6428
vn 0.0000 -0.7660 0.6428
vn 0.5830 0.8125 0.0000
vn -0.0000 0.6670 -0.7451
vn -0.9729 -0.2311 0.0025
vn -0.0047 0.6122 -0.7907
vn 0.0036 -0.4659 0.8848
vn 0.9085 0.4179 0.0017
vn -0.0520 0.1429 0.9884
vn 0.3699 -0.0000 -0.9291
vn -0.7097 0.0000 0.7045
vn -0.0000 0.6428 -0.7660
vn 0.0000 -0.6428 0.7660
vn 0.0000 0.7660 0.6428
vn 0.0000 -0.7660 -0.6428
vn 0.0000 0.6670 0.7451
usemtl Material
s off
f 6/1/1 7/2/1 3/3/1 9/4/1
f 10/5/2 9/4/2 3/6/2 4/7/2
f 5/8/3 8/9/3 10/5/3 4/10/3
f 2/11/4 12/12/4 14/13/4 16/14/4
f 4/15/5 3/16/5 7/17/5 5/18/5
f 1/19/6 11/20/6 12/12/6 8/9/6 6/1/6 9/4/6 10/5/6 2/11/6
f 12/12/6 2/11/6 10/5/6 8/9/6
f 14/21/6 13/22/6 15/23/6 16/24/6
f 1/19/7 2/11/7 16/14/7 15/25/7
f 12/12/8 11/20/8 13/26/8 14/13/8
f 11/20/9 1/19/9 15/25/9 13/26/9
f 19/27/3 17/28/3 20/29/3 18/30/3
f 17/31/10 19/32/10 22/33/10 24/34/10
f 19/32/11 18/35/11 21/36/11 22/33/11
f 20/37/12 17/31/12 24/34/12 23/38/12
f 18/35/13 20/37/13 23/38/13 21/36/13
f 21/36/14 23/38/14 24/34/14 22/33/14
f 26/39/5 28/40/5 25/41/5 27/42/5
f 31/43/15 32/44/15 36/45/15 35/46/15
f 26/47/16 27/48/16 32/44/16 31/43/16
f 28/49/3 26/47/3 31/43/3 29/50/3
f 27/48/1 25/51/1 30/52/1 32/44/1
f 25/51/2 28/49/2 29/50/2 30/52/2
f 35/46/6 36/45/6 34/53/6 33/54/6
f 29/50/3 31/43/3 35/46/3 33/54/3
f 32/44/1 30/52/1 34/53/1 36/45/1
f 30/52/17 29/50/17 33/54/17 34/53/17
f 37/55/18 38/56/18 40/57/18 39/58/18
f 42/59/19 43/60/19 44/61/19 41/62/19
f 39/58/20 40/57/20 44/61/20 43/60/20
f 37/55/6 39/58/6 43/60/6 42/59/6
f 40/57/5 38/56/5 41/62/5 44/61/5
f 38/56/21 37/55/21 42/59/21 41/62/21
f 59/63/22 58/64/22 52/65/22 56/66/22
f 53/67/23 45/68/23 51/69/23 55/70/23
f 57/71/1 48/72/1 52/65/1 58/64/1
f 46/73/2 53/74/2 55/75/2 50/76/2
f 46/73/6 47/77/6 54/78/6 53/74/6
f 45/68/1 57/79/1 58/80/1 51/69/1
f 55/70/22 51/69/22 58/80/22 59/81/22
f 50/76/5 55/75/5 59/82/5 56/83/5 49/84/5
f 47/77/3 46/73/3 50/76/3 49/84/3
f 53/67/6 54/85/6 48/86/6 57/79/6 45/68/6
f 65/87/19 66/88/19 67/89/19 64/90/19
f 62/91/20 63/92/20 67/89/20 66/88/20
f 60/93/6 62/91/6 66/88/6 65/87/6
f 63/92/5 61/94/5 64/90/5 67/89/5
f 61/94/21 60/93/21 65/87/21 64/90/21
f 73/95/19 74/96/19 75/97/19 72/98/19
f 70/99/20 71/100/20 75/97/20 74/96/20
f 68/101/6 70/99/6 74/96/6 73/95/6
f 71/100/5 69/102/5 72/98/5 75/97/5
f 69/102/21 68/101/21 73/95/21 72/98/21
f 6/1/1 80/103/1 78/104/1 7/2/1
f 81/105/16 79/106/16 78/107/16 80/103/16
f 5/8/3 79/108/3 81/105/3 8/9/3
f 77/109/4 87/110/4 85/111/4 83/112/4
f 79/113/5 5/18/5 7/17/5 78/114/5
f 76/115/6 77/109/6 81/105/6 80/103/6 6/1/6 8/9/6 83/112/6 82/116/6
f 83/112/6 8/9/6 81/105/6 77/109/6
f 85/117/6 87/118/6 86/119/6 84/120/6
f 76/115/8 86/121/8 87/110/8 77/109/8
f 83/112/7 85/111/7 84/122/7 82/116/7
f 82/116/9 84/122/9 86/121/9 76/115/9
f 19/27/3 18/30/3 89/123/3 88/124/3
f 88/125/24 93/126/24 91/127/24 19/32/24
f 19/32/25 91/127/25 90/128/25 18/35/25
f 89/129/26 92/130/26 93/126/26 88/125/26
f 18/35/27 90/128/27 92/130/27 89/129/27
f 90/128/28 91/127/28 93/126/28 92/130/28
f 95/131/5 96/132/5 94/133/5 97/134/5
f 100/135/29 104/136/29 105/137/29 101/138/29
f 95/139/2 100/135/2 101/138/2 96/140/2
f 97/141/3 98/142/3 100/135/3 95/139/3
f 96/140/1 101/138/1 99/143/1 94/144/1
f 94/144/16 99/143/16 98/142/16 97/141/16
f 104/136/6 102/145/6 103/146/6 105/137/6
f 98/142/3 102/145/3 104/136/3 100/135/3
f 101/138/1 105/137/1 103/146/1 99/143/1
f 99/143/30 103/146/30 102/145/30 98/142/30
f 106/147/31 108/148/31 109/149/31 107/150/31
f 111/151/32 110/152/32 113/153/32 112/154/32
f 108/148/33 112/154/33 113/153/33 109/149/33
f 106/147/6 111/151/6 112/154/6 108/148/6
f 109/149/5 113/153/5 110/152/5 107/150/5
f 107/150/34 110/152/34 111/151/34 106/147/34
f 122/155/22 56/66/22 52/65/22 121/156/22
f 118/157/35 119/158/35 117/159/35 114/160/35
f 120/161/1 121/156/1 52/65/1 48/72/1
f 115/162/16 116/163/16 119/164/16 118/165/16
f 115/162/6 118/165/6 54/78/6 47/77/6
f 114/160/1 117/159/1 121/166/1 120/167/1
f 119/158/22 122/168/22 121/166/22 117/159/22
f 116/163/5 49/84/5 56/83/5 122/169/5 119/164/5
f 47/77/3 49/84/3 116/163/3 115/162/3
f 118/157/6 114/160/6 120/167/6 48/86/6 54/85/6
f 128/170/32 127/171/32 130/172/32 129/173/32
f 125/174/33 129/173/33 130/172/33 126/175/33
f 123/176/6 128/170/6 129/173/6 125/174/6
f 126/175/5 130/172/5 127/171/5 124/177/5
f 124/177/34 127/171/34 128/170/34 123/176/34
f 136/178/32 135/179/32 138/180/32 137/181/32
f 133/182/33 137/181/33 138/180/33 134/183/33
f 131/184/6 136/178/6 137/181/6 133/182/6
f 134/183/5 138/180/5 135/179/5 132/185/5
f 132/185/34 135/179/34 136/178/34 131/184/34
