# Blender v3.0.0 OBJ File: 'Ğ–ÑƒĞº 3.blend'
# www.blender.org
mtllib beatle 3.mtl
o Cube
v -0.310574 -0.049146 -0.255824
v -0.310574 -0.227420 -0.255824
v 0.382188 0.046370 -0.346381
v 0.382188 -0.646391 -0.346381
v 0.382188 -0.646391 -0.000000
v -0.310574 0.046370 0.000000
v 0.382188 0.046370 -0.000000
v -0.310574 -0.646391 0.000000
v -0.310574 0.046370 -0.346381
v -0.310574 -0.646391 -0.346381
v -0.310574 -0.049146 -0.090557
v -0.310574 -0.227420 -0.090557
v -0.280342 -0.071742 -0.111504
v -0.280342 -0.204824 -0.111504
v -0.280342 -0.071742 -0.234876
v -0.280342 -0.204824 -0.234876
v -0.310574 0.046370 -0.096564
v -0.222295 0.046370 0.000000
v -0.310574 0.046370 0.000000
v -0.222295 0.046370 -0.096564
v -0.371908 0.489560 -0.333647
v -0.460187 0.457429 -0.333647
v -0.339266 0.399874 -0.348330
v -0.427544 0.367743 -0.348330
v -0.301563 0.296286 -0.536525
v -0.389841 0.264156 -0.536525
v -0.295807 0.280473 -0.551208
v -0.384086 0.248342 -0.551208
v -0.302415 -0.494582 -0.177497
v -0.302415 -0.583252 -0.089908
v -0.302415 -0.494582 -0.089908
v -0.302415 -0.583252 -0.177497
v -0.395637 -0.583252 -0.177497
v -0.395637 -0.494582 -0.177497
v -0.395637 -0.583252 -0.089908
v -0.395637 -0.494582 -0.089908
v -0.536491 -0.583252 -0.035588
v -0.536491 -0.494582 -0.035588
v -0.536491 -0.583252 -0.033837
v -0.536491 -0.494582 -0.033837
v 0.479671 -0.342464 -0.540513
v 0.821118 -0.342464 -0.540513
v 0.479671 -0.089153 -0.753066
v 0.821118 -0.089153 -0.753066
v 0.821118 -0.952108 -1.267058
v 0.479671 -0.952108 -1.267058
v 0.479671 -0.698797 -1.479611
v 0.821118 -0.698797 -1.479611
v 0.382188 0.117984 -0.567630
v 0.382188 -0.646391 -0.753066
v 0.382188 -0.646391 -0.000000
v 0.382188 0.117984 -0.000000
v 2.289250 -0.646391 -0.000000
v 2.289250 -0.646391 -0.753066
v 2.000558 0.117984 -0.567630
v 2.000558 0.117984 -0.000000
v 0.382188 -0.089153 -0.753066
v 0.382188 -0.089153 -0.000000
v 2.289250 -0.089153 -0.753066
v 2.289250 -0.089153 -0.000000
v 0.382188 0.117984 -0.157144
v 2.000558 0.117984 -0.157144
v 2.289250 -0.089153 -0.208480
v 1.106631 -0.342464 -0.540513
v 1.448078 -0.342464 -0.540513
v 1.106631 -0.089153 -0.753066
v 1.448078 -0.089153 -0.753066
v 1.448077 -0.952108 -1.267058
v 1.106630 -0.952108 -1.267058
v 1.106630 -0.698797 -1.479611
v 1.448077 -0.698797 -1.479611
v 1.758065 -0.342464 -0.540513
v 2.099512 -0.342464 -0.540513
v 1.758065 -0.089153 -0.753066
v 2.099512 -0.089153 -0.753066
v 2.099512 -0.952108 -1.267058
v 1.758065 -0.952108 -1.267058
v 1.758065 -0.698797 -1.479611
v 2.099512 -0.698797 -1.479611
v -0.310574 -0.049146 0.255824
v -0.310574 -0.227420 0.255824
v 0.382188 0.046370 0.346381
v 0.382188 -0.646391 0.346381
v -0.310574 0.046370 0.346381
v -0.310574 -0.646391 0.346381
v -0.310574 -0.049146 0.090557
v -0.310574 -0.227420 0.090557
v -0.280342 -0.071742 0.111504
v -0.280342 -0.204824 0.111504
v -0.280342 -0.071742 0.234877
v -0.280342 -0.204824 0.234877
v -0.310574 0.046370 0.096564
v -0.222295 0.046370 0.096564
v -0.371908 0.489560 0.333647
v -0.460187 0.457429 0.333647
v -0.339265 0.399874 0.348330
v -0.427544 0.367743 0.348330
v -0.301563 0.296286 0.536525
v -0.389841 0.264156 0.536525
v -0.295807 0.280473 0.551208
v -0.384086 0.248342 0.551208
v -0.302415 -0.494582 0.177497
v -0.302415 -0.583252 0.089909
v -0.302415 -0.494582 0.089909
v -0.302415 -0.583252 0.177497
v -0.395637 -0.583252 0.177497
v -0.395637 -0.494582 0.177497
v -0.395637 -0.583252 0.089909
v -0.395637 -0.494582 0.089909
v -0.536491 -0.583252 0.035588
v -0.536491 -0.494582 0.035588
v -0.536491 -0.583252 0.033838
v -0.536491 -0.494582 0.033838
v 0.479671 -0.342464 0.540513
v 0.821118 -0.342464 0.540513
v 0.479671 -0.089153 0.753066
v 0.821118 -0.089153 0.753066
v 0.821119 -0.952108 1.267058
v 0.479671 -0.952108 1.267058
v 0.479672 -0.698797 1.479611
v 0.821119 -0.698797 1.479611
v 0.382188 0.117984 0.567630
v 0.382188 -0.646391 0.753065
v 2.289250 -0.646391 0.753065
v 2.000558 0.117984 0.567630
v 0.382188 -0.089153 0.753065
v 2.289250 -0.089153 0.753065
v 0.382188 0.117984 0.157143
v 2.000558 0.117984 0.157143
v 2.289250 -0.089153 0.208479
v 1.106631 -0.342464 0.540512
v 1.448078 -0.342464 0.540512
v 1.106631 -0.089153 0.753065
v 1.448078 -0.089153 0.753065
v 1.448078 -0.952108 1.267058
v 1.106631 -0.952108 1.267058
v 1.106631 -0.698797 1.479611
v 1.448078 -0.698797 1.479611
v 1.758065 -0.342464 0.540512
v 2.099512 -0.342464 0.540512
v 1.758065 -0.089153 0.753065
v 2.099512 -0.089153 0.753065
v 2.099512 -0.952108 1.267057
v 1.758065 -0.952108 1.267058
v 1.758065 -0.698797 1.479611
v 2.099512 -0.698797 1.479611
vt 0.644826 0.629201
vt 0.657134 0.629201
vt 0.657134 0.635355
vt 0.644826 0.635355
vt 0.632518 0.635355
vt 0.644826 0.647663
vt 0.632518 0.647663
vt 0.620210 0.629201
vt 0.632518 0.629201
vt 0.620210 0.635355
vt 0.634127 0.633746
vt 0.634127 0.630810
vt 0.634127 0.630810
vt 0.634127 0.633746
vt 0.632518 0.598431
vt 0.644826 0.598431
vt 0.644826 0.604585
vt 0.632518 0.604585
vt 0.643217 0.633746
vt 0.643217 0.630810
vt 0.768032 0.851320
vt 0.817906 0.851320
vt 0.817906 0.867430
vt 0.768032 0.867430
vt 0.643217 0.633746
vt 0.643217 0.630810
vt 0.625000 0.625000
vt 0.625000 0.750000
vt 0.875000 0.750000
vt 0.875000 0.625000
vt 0.687751 0.692508
vt 0.738030 0.692508
vt 0.738030 0.692508
vt 0.687751 0.692508
vt 0.687751 0.717648
vt 0.687751 0.692508
vt 0.687751 0.717648
vt 0.738030 0.692508
vt 0.738030 0.717648
vt 0.738030 0.717648
vt 0.738030 0.717648
vt 0.687751 0.717648
vt 0.625000 0.625000
vt 0.625000 0.750000
vt 0.875000 0.750000
vt 0.875000 0.625000
vt 0.683179 0.687293
vt 0.738696 0.687293
vt 0.738696 0.687293
vt 0.683179 0.687293
vt 0.683179 0.687293
vt 0.738696 0.687293
vt 0.683179 0.715051
vt 0.683179 0.715051
vt 0.738696 0.715051
vt 0.738696 0.715051
vt 0.738696 0.715051
vt 0.683179 0.715051
vt 0.632518 0.598431
vt 0.632518 0.598431
vt 0.641491 0.598431
vt 0.641491 0.598431
vt 0.632518 0.598431
vt 0.641491 0.598431
vt 0.641491 0.598431
vt 0.632518 0.598431
vt 0.717662 0.477881
vt 0.720998 0.477881
vt 0.720998 0.479585
vt 0.717662 0.479585
vt 0.637584 0.537884
vt 0.640920 0.537884
vt 0.640920 0.537884
vt 0.637584 0.537884
vt 0.720998 0.477881
vt 0.720998 0.479585
vt 0.632518 0.598431
vt 0.641491 0.598431
vt 0.641491 0.598431
vt 0.632518 0.598431
vt 0.632518 0.604585
vt 0.641491 0.604585
vt 0.640920 0.542334
vt 0.640920 0.542334
vt 0.637584 0.542334
vt 0.641491 0.602881
vt 0.641491 0.604585
vt 0.632518 0.604585
vt 0.637584 0.544038
vt 0.640920 0.544038
vt 0.632518 0.598431
vt 0.641491 0.598431
vt 0.641491 0.598431
vt 0.632518 0.598431
vt 0.641491 0.598431
vt 0.641491 0.598431
vt 0.632518 0.598431
vt 0.632518 0.598431
vt 0.632518 0.598431
vt 0.641491 0.598431
vt 0.641491 0.598431
vt 0.632518 0.598431
vt 0.641491 0.598431
vt 0.641491 0.598431
vt 0.632518 0.598431
vt 0.632518 0.598431
vt 0.644826 0.635355
vt 0.657134 0.635355
vt 0.632518 0.635355
vt 0.632518 0.647663
vt 0.644826 0.647663
vt 0.620210 0.635355
vt 0.634127 0.633746
vt 0.634127 0.633746
vt 0.634127 0.630810
vt 0.634127 0.630810
vt 0.632518 0.598431
vt 0.644826 0.598431
vt 0.643217 0.633746
vt 0.643217 0.630810
vt 0.768032 0.851320
vt 0.768032 0.867430
vt 0.817906 0.867430
vt 0.817906 0.851320
vt 0.643217 0.633746
vt 0.643217 0.630810
vt 0.875000 0.750000
vt 0.625000 0.750000
vt 0.687751 0.692508
vt 0.687751 0.692508
vt 0.738030 0.692508
vt 0.738030 0.692508
vt 0.687751 0.717648
vt 0.687751 0.717648
vt 0.738030 0.717648
vt 0.738030 0.717648
vt 0.687751 0.717648
vt 0.738030 0.717648
vt 0.625000 0.625000
vt 0.875000 0.625000
vt 0.875000 0.750000
vt 0.625000 0.750000
vt 0.683179 0.687293
vt 0.683179 0.687293
vt 0.738696 0.687293
vt 0.738696 0.687293
vt 0.683179 0.687293
vt 0.738696 0.687293
vt 0.683179 0.715051
vt 0.683179 0.715051
vt 0.738696 0.715051
vt 0.738696 0.715051
vt 0.683179 0.715051
vt 0.738696 0.715051
vt 0.632518 0.598431
vt 0.641491 0.598431
vt 0.641491 0.598431
vt 0.632518 0.598431
vt 0.632518 0.598431
vt 0.632518 0.598431
vt 0.641491 0.598431
vt 0.641491 0.598431
vt 0.717662 0.477881
vt 0.720998 0.477881
vt 0.637584 0.537884
vt 0.637584 0.537884
vt 0.640920 0.537884
vt 0.640920 0.537884
vt 0.720998 0.477881
vt 0.632518 0.598431
vt 0.632518 0.598431
vt 0.641491 0.598431
vt 0.641491 0.598431
vt 0.640920 0.542334
vt 0.640920 0.542334
vt 0.637584 0.542334
vt 0.641491 0.602881
vt 0.632518 0.598431
vt 0.632518 0.598431
vt 0.641491 0.598431
vt 0.641491 0.598431
vt 0.641491 0.598431
vt 0.641491 0.598431
vt 0.632518 0.598431
vt 0.632518 0.598431
vt 0.632518 0.598431
vt 0.632518 0.598431
vt 0.641491 0.598431
vt 0.641491 0.598431
vt 0.641491 0.598431
vt 0.641491 0.598431
vt 0.632518 0.598431
vt 0.632518 0.598431
vn 0.0000 1.0000 0.0000
vn -0.0000 0.0000 -1.0000
vn 0.0000 -1.0000 0.0000
vn -0.5987 0.8010 0.0000
vn 1.0000 0.0000 -0.0000
vn -1.0000 -0.0000 0.0000
vn -0.5695 0.0000 0.8220
vn -0.5695 0.0000 -0.8220
vn -0.5987 -0.8010 0.0000
vn -0.2402 0.6599 -0.7119
vn -0.9397 -0.3420 0.0000
vn -0.1071 0.5885 0.8014
vn 0.1040 -0.5714 -0.8141
vn 0.9451 0.3266 0.0140
vn -0.2249 0.6178 -0.7535
vn 0.2899 -0.7964 0.5308
vn 0.9397 0.3420 0.0000
vn 0.3699 -0.0000 0.9291
vn 0.0000 -0.0000 1.0000
vn -0.7097 0.0000 -0.7045
vn 0.0000 0.6428 0.7660
vn 0.0000 -0.6428 -0.7660
vn 0.0000 0.7660 -0.6428
vn 0.0000 -0.7660 0.6428
vn 0.5830 0.8125 0.0000
vn -0.0000 0.6670 -0.7451
vn -0.2402 0.6599 0.7119
vn -0.1071 0.5885 -0.8014
vn 0.1040 -0.5714 0.8141
vn 0.9451 0.3266 -0.0140
vn -0.2249 0.6178 0.7535
vn 0.2899 -0.7964 -0.5308
vn 0.3699 -0.0000 -0.9291
vn -0.7097 0.0000 0.7045
vn -0.0000 0.6428 -0.7660
vn 0.0000 -0.6428 0.7660
vn 0.0000 0.7660 0.6428
vn 0.0000 -0.7660 -0.6428
vn 0.0000 0.6670 0.7451
usemtl Material
s off
f 6/1/1 7/2/1 3/3/1 9/4/1
f 10/5/2 9/4/2 3/6/2 4/7/2
f 5/8/3 8/9/3 10/5/3 4/10/3
f 2/11/4 12/12/4 14/13/4 16/14/4
f 4/15/5 3/16/5 7/17/5 5/18/5
f 1/19/6 11/20/6 12/12/6 8/9/6 6/1/6 9/4/6 10/5/6 2/11/6
f 12/12/6 2/11/6 10/5/6 8/9/6
f 14/21/6 13/22/6 15/23/6 16/24/6
f 1/19/7 2/11/7 16/14/7 15/25/7
f 12/12/8 11/20/8 13/26/8 14/13/8
f 11/20/9 1/19/9 15/25/9 13/26/9
f 19/27/3 17/28/3 20/29/3 18/30/3
f 22/31/10 21/32/10 25/33/10 26/34/10
f 17/35/11 19/36/11 22/31/11 24/37/11
f 19/36/12 18/38/12 21/32/12 22/31/12
f 20/39/13 17/35/13 24/37/13 23/40/13
f 18/38/14 20/39/14 23/40/14 21/32/14
f 26/34/15 25/33/15 27/41/15 28/42/15
f 23/40/16 24/37/16 28/42/16 27/41/16
f 21/32/17 23/40/17 27/41/17 25/33/17
f 24/37/11 22/31/11 26/34/11 28/42/11
f 30/43/5 32/44/5 29/45/5 31/46/5
f 35/47/18 36/48/18 40/49/18 39/50/18
f 30/51/19 31/52/19 36/48/19 35/47/19
f 32/53/3 30/51/3 35/47/3 33/54/3
f 31/52/1 29/55/1 34/56/1 36/48/1
f 29/55/2 32/53/2 33/54/2 34/56/2
f 39/50/6 40/49/6 38/57/6 37/58/6
f 33/54/3 35/47/3 39/50/3 37/58/3
f 36/48/1 34/56/1 38/57/1 40/49/1
f 34/56/20 33/54/20 37/58/20 38/57/20
f 41/59/21 42/60/21 44/61/21 43/62/21
f 46/63/22 47/64/22 48/65/22 45/66/22
f 43/62/23 44/61/23 48/65/23 47/64/23
f 41/59/6 43/62/6 47/64/6 46/63/6
f 44/61/5 42/60/5 45/66/5 48/65/5
f 42/60/24 41/59/24 46/63/24 45/66/24
f 63/67/25 62/68/25 56/69/25 60/70/25
f 57/71/26 49/72/26 55/73/26 59/74/26
f 61/75/1 52/76/1 56/69/1 62/68/1
f 50/77/2 57/78/2 59/79/2 54/80/2
f 50/77/6 51/81/6 58/82/6 57/78/6
f 49/72/1 61/83/1 62/84/1 55/73/1
f 59/74/25 55/73/25 62/84/25 63/85/25
f 54/80/5 59/79/5 63/86/5 60/87/5 53/88/5
f 51/81/3 50/77/3 54/80/3 53/88/3
f 57/71/6 58/89/6 52/90/6 61/83/6 49/72/6
f 69/91/22 70/92/22 71/93/22 68/94/22
f 66/95/23 67/96/23 71/93/23 70/92/23
f 64/97/6 66/95/6 70/92/6 69/91/6
f 67/96/5 65/98/5 68/94/5 71/93/5
f 65/98/24 64/97/24 69/91/24 68/94/24
f 77/99/22 78/100/22 79/101/22 76/102/22
f 74/103/23 75/104/23 79/101/23 78/100/23
f 72/105/6 74/103/6 78/100/6 77/99/6
f 75/104/5 73/106/5 76/102/5 79/101/5
f 73/106/24 72/105/24 77/99/24 76/102/24
f 6/1/1 84/107/1 82/108/1 7/2/1
f 85/109/19 83/110/19 82/111/19 84/107/19
f 5/8/3 83/112/3 85/109/3 8/9/3
f 81/113/4 91/114/4 89/115/4 87/116/4
f 83/117/5 5/18/5 7/17/5 82/118/5
f 80/119/6 81/113/6 85/109/6 84/107/6 6/1/6 8/9/6 87/116/6 86/120/6
f 87/116/6 8/9/6 85/109/6 81/113/6
f 89/121/6 91/122/6 90/123/6 88/124/6
f 80/119/8 90/125/8 91/114/8 81/113/8
f 87/116/7 89/115/7 88/126/7 86/120/7
f 86/120/9 88/126/9 90/125/9 80/119/9
f 19/27/3 18/30/3 93/127/3 92/128/3
f 95/129/27 99/130/27 98/131/27 94/132/27
f 92/133/11 97/134/11 95/129/11 19/36/11
f 19/36/28 95/129/28 94/132/28 18/38/28
f 93/135/29 96/136/29 97/134/29 92/133/29
f 18/38/30 94/132/30 96/136/30 93/135/30
f 99/130/31 101/137/31 100/138/31 98/131/31
f 96/136/32 100/138/32 101/137/32 97/134/32
f 94/132/17 98/131/17 100/138/17 96/136/17
f 97/134/11 101/137/11 99/130/11 95/129/11
f 103/139/5 104/140/5 102/141/5 105/142/5
f 108/143/33 112/144/33 113/145/33 109/146/33
f 103/147/2 108/143/2 109/146/2 104/148/2
f 105/149/3 106/150/3 108/143/3 103/147/3
f 104/148/1 109/146/1 107/151/1 102/152/1
f 102/152/19 107/151/19 106/150/19 105/149/19
f 112/144/6 110/153/6 111/154/6 113/145/6
f 106/150/3 110/153/3 112/144/3 108/143/3
f 109/146/1 113/145/1 111/154/1 107/151/1
f 107/151/34 111/154/34 110/153/34 106/150/34
f 114/155/35 116/156/35 117/157/35 115/158/35
f 119/159/36 118/160/36 121/161/36 120/162/36
f 116/156/37 120/162/37 121/161/37 117/157/37
f 114/155/6 119/159/6 120/162/6 116/156/6
f 117/157/5 121/161/5 118/160/5 115/158/5
f 115/158/38 118/160/38 119/159/38 114/155/38
f 130/163/25 60/70/25 56/69/25 129/164/25
f 126/165/39 127/166/39 125/167/39 122/168/39
f 128/169/1 129/164/1 56/69/1 52/76/1
f 123/170/19 124/171/19 127/172/19 126/173/19
f 123/170/6 126/173/6 58/82/6 51/81/6
f 122/168/1 125/167/1 129/174/1 128/175/1
f 127/166/25 130/176/25 129/174/25 125/167/25
f 124/171/5 53/88/5 60/87/5 130/177/5 127/172/5
f 51/81/3 53/88/3 124/171/3 123/170/3
f 126/165/6 122/168/6 128/175/6 52/90/6 58/89/6
f 136/178/36 135/179/36 138/180/36 137/181/36
f 133/182/37 137/181/37 138/180/37 134/183/37
f 131/184/6 136/178/6 137/181/6 133/182/6
f 134/183/5 138/180/5 135/179/5 132/185/5
f 132/185/38 135/179/38 136/178/38 131/184/38
f 144/186/36 143/187/36 146/188/36 145/189/36
f 141/190/37 145/189/37 146/188/37 142/191/37
f 139/192/6 144/186/6 145/189/6 141/190/6
f 142/191/5 146/188/5 143/187/5 140/193/5
f 140/193/38 143/187/38 144/186/38 139/192/38
