# Blender v3.0.0 OBJ File: 'Уголёк 1.blend'
# www.blender.org
mtllib coal 1.mtl
o Cube
v -1.000000 2.000000 -1.000000
v -1.000000 0.000000 -1.000000
v 0.000000 1.000000 1.000000
v 0.000000 0.000000 -1.000000
v 0.000000 2.000000 1.000000
v 0.000000 0.000000 1.000000
v 0.000000 2.000000 -1.000000
v -0.173014 0.413493 1.000000
v -0.697107 1.697107 1.000000
v -0.697107 1.302893 1.000000
v -0.173014 0.586507 1.000000
v -1.000000 2.000000 1.000000
v -0.302893 1.697107 0.824305
v -0.302893 1.697107 1.000000
v -0.302893 1.302893 1.000000
v -0.302893 1.302893 0.824305
v -0.697107 1.302893 0.824305
v -0.697107 1.697107 0.824305
v -1.000000 0.000000 1.000000
v -1.000000 1.000000 1.000000
v 0.000000 0.413493 1.000000
v 0.000000 0.586507 1.000000
v 0.000000 0.586507 0.779590
v 0.000000 0.413493 0.779590
v -0.173014 0.413493 0.779590
v -0.173014 0.586507 0.779590
v 1.000000 2.000000 -1.000000
v 1.000000 0.000000 -1.000000
v 0.173014 0.413493 1.000000
v 0.697107 1.697107 1.000000
v 0.697107 1.302893 1.000000
v 0.173014 0.586507 1.000000
v 1.000000 2.000000 1.000000
v 0.302893 1.697107 0.824305
v 0.302893 1.697107 1.000000
v 0.302893 1.302893 1.000000
v 0.302893 1.302893 0.824305
v 0.697107 1.302893 0.824305
v 0.697107 1.697107 0.824305
v 1.000000 0.000000 1.000000
v 1.000000 1.000000 1.000000
v 0.173014 0.413493 0.779590
v 0.173014 0.586507 0.779590
vt 0.801947 0.705661
vt 0.806436 0.705661
vt 0.806436 0.714639
vt 0.801947 0.714639
vt 0.796602 0.714639
vt 0.796134 0.714639
vt 0.796134 0.714639
vt 0.796602 0.714639
vt 0.788480 0.696683
vt 0.797458 0.696683
vt 0.797458 0.701172
vt 0.788480 0.701172
vt 0.779501 0.705661
vt 0.783990 0.705661
vt 0.783990 0.714639
vt 0.779501 0.714639
vt 0.788480 0.687704
vt 0.792969 0.687704
vt 0.797458 0.687704
vt 0.801443 0.714639
vt 0.792969 0.714639
vt 0.792969 0.714639
vt 0.800141 0.714639
vt 0.771080 0.935547
vt 0.767663 0.935547
vt 0.796941 0.935547
vt 0.806455 0.935547
vt 0.801443 0.714639
vt 0.800141 0.714639
vt 0.786622 0.714639
vt 0.786151 0.714639
vt 0.788176 0.714639
vt 0.788481 0.714639
vt 0.795916 0.949014
vt 0.796388 0.949014
vt 0.798246 0.949014
vt 0.797941 0.949014
vt 0.786151 0.714639
vt 0.788176 0.714639
vt 0.786622 0.714639
vt 0.788481 0.714639
vt 0.806436 0.714639
vt 0.806436 0.705661
vt 0.796602 0.714639
vt 0.796602 0.714639
vt 0.796134 0.714639
vt 0.796134 0.714639
vt 0.788480 0.696683
vt 0.797458 0.696683
vt 0.779501 0.705661
vt 0.779501 0.714639
vt 0.788480 0.687704
vt 0.797458 0.687704
vt 0.792969 0.687704
vt 0.800141 0.714639
vt 0.792969 0.714639
vt 0.801443 0.714639
vt 0.771080 0.935547
vt 0.806455 0.935547
vt 0.796941 0.935547
vt 0.767663 0.935547
vt 0.801443 0.714639
vt 0.800141 0.714639
vt 0.786151 0.714639
vt 0.788176 0.714639
vt 0.795916 0.949014
vt 0.797941 0.949014
vt 0.788176 0.714639
vt 0.786151 0.714639
vn 0.0000 1.0000 0.0000
vn 0.0000 0.0000 -1.0000
vn 0.0000 -1.0000 0.0000
vn -1.0000 0.0000 0.0000
vn 0.0000 0.0000 1.0000
vn 1.0000 0.0000 0.0000
usemtl Material
s off
f 7/1/1 1/2/1 12/3/1 5/4/1
f 10/5/1 15/6/1 16/7/1 17/8/1
f 2/9/2 1/10/2 7/11/2 4/12/2
f 2/13/3 4/14/3 6/15/3 19/16/3
f 19/17/4 20/18/4 12/19/4 1/10/4 2/9/4
f 15/6/5 10/5/5 9/20/5 12/3/5 20/21/5 3/22/5 5/4/5 14/23/5
f 9/20/5 14/23/5 5/4/5 12/3/5
f 17/24/5 16/25/5 13/26/5 18/27/5
f 9/20/6 10/5/6 17/8/6 18/28/6
f 14/23/3 9/20/3 18/28/3 13/29/3
f 15/6/4 14/23/4 13/29/4 16/7/4
f 21/30/5 8/31/5 19/16/5 6/15/5
f 11/32/5 22/33/5 3/22/5 20/21/5
f 8/31/5 11/32/5 20/21/5 19/16/5
f 25/34/5 24/35/5 23/36/5 26/37/5
f 11/32/6 8/31/6 25/38/6 26/39/6
f 8/31/1 21/30/1 24/40/1 25/38/1
f 22/33/3 11/32/3 26/39/3 23/41/3
f 7/1/1 5/4/1 33/42/1 27/43/1
f 31/44/1 38/45/1 37/46/1 36/47/1
f 28/48/2 4/12/2 7/11/2 27/49/2
f 28/50/3 40/51/3 6/15/3 4/14/3
f 40/52/6 28/48/6 27/49/6 33/53/6 41/54/6
f 36/47/5 35/55/5 5/4/5 3/22/5 41/56/5 33/42/5 30/57/5 31/44/5
f 30/57/5 33/42/5 5/4/5 35/55/5
f 38/58/5 39/59/5 34/60/5 37/61/5
f 30/57/4 39/62/4 38/45/4 31/44/4
f 35/55/3 34/63/3 39/62/3 30/57/3
f 36/47/6 37/46/6 34/63/6 35/55/6
f 21/30/5 6/15/5 40/51/5 29/64/5
f 32/65/5 41/56/5 3/22/5 22/33/5
f 29/64/5 40/51/5 41/56/5 32/65/5
f 42/66/5 43/67/5 23/36/5 24/35/5
f 32/65/4 43/68/4 42/69/4 29/64/4
f 29/64/1 42/69/1 24/40/1 21/30/1
f 22/33/3 23/41/3 43/68/3 32/65/3
