# Blender v3.0.0 OBJ File: 'Жук 5.blend'
# www.blender.org
mtllib шлем.mtl
o Cube.001
v -0.362291 0.159048 -0.378827
v 0.382188 0.159048 -0.378827
v 0.382188 0.159048 -0.000000
v -0.362291 0.159048 0.000000
v 0.382188 0.063353 -0.000000
v -0.362291 0.063353 0.000000
v 0.382188 0.063353 -0.378827
v -0.362291 0.063353 -0.378827
v -0.112712 -0.147162 -0.354872
v -0.112712 -0.147162 -0.378827
v 0.382188 0.063353 -0.354872
v -0.362291 0.063353 -0.354872
v 0.382188 -0.147162 -0.378827
v -0.112712 0.159048 0.000000
v -0.112712 0.063353 -0.378827
v -0.112712 0.063353 -0.354872
v 0.382188 -0.147162 -0.354872
v -0.327557 0.063353 -0.354872
v -0.327557 0.159048 0.000000
v -0.327557 0.063353 0.000000
v -0.362291 0.159048 0.378827
v 0.382188 0.159048 0.378827
v 0.382188 0.063353 0.378827
v -0.362291 0.063353 0.378827
v -0.112712 -0.147162 0.354872
v -0.112712 -0.147162 0.378827
v 0.382188 0.063353 0.354872
v -0.362291 0.063353 0.354872
v 0.382188 -0.147162 0.378827
v -0.112712 0.063353 0.378827
v -0.112712 0.063353 0.354872
v 0.382188 -0.147162 0.354872
v -0.327557 0.063353 0.354872
vt 0.715138 0.446087
vt 0.715138 0.446476
vt 0.715138 0.470505
vt 0.715138 0.470633
vt 0.715138 0.452241
vt 0.715138 0.446476
vt 0.715138 0.446087
vt 0.715138 0.446087
vt 0.715138 0.452241
vt 0.715138 0.480936
vt 0.715138 0.475709
vt 0.715138 0.476857
vt 0.715138 0.482622
vt 0.715138 0.470633
vt 0.715138 0.483011
vt 0.715138 0.483011
vt 0.715138 0.475709
vt 0.715138 0.476857
vt 0.715138 0.470505
vt 0.715138 0.468605
vt 0.715138 0.446087
vt 0.715138 0.470633
vt 0.715138 0.470505
vt 0.715138 0.446476
vt 0.715138 0.446087
vt 0.715138 0.446087
vt 0.715138 0.446476
vt 0.715138 0.480936
vt 0.715138 0.482622
vt 0.715138 0.470633
vt 0.715138 0.483011
vt 0.715138 0.483011
vt 0.715138 0.470505
vn 0.0000 -1.0000 -0.0000
vn 1.0000 0.0000 -0.0000
vn -0.0000 0.0000 -1.0000
vn 0.0000 0.0000 1.0000
vn -1.0000 0.0000 0.0000
vn 0.0000 1.0000 -0.0000
usemtl Material
s off
f 13/1/1 17/2/1 9/3/1 10/4/1
f 5/5/2 11/6/2 7/7/2 2/8/2 3/9/2
f 18/10/1 20/11/1 6/12/1 12/13/1
f 15/14/3 7/7/3 13/1/3 10/4/3
f 7/7/3 15/14/3 8/15/3 1/16/3 2/8/3
f 6/12/4 20/11/4 19/17/4 4/18/4
f 16/19/5 15/14/5 10/4/5 9/3/5
f 1/16/6 4/18/6 19/17/6 14/20/6 3/9/6 2/8/6
f 8/15/5 12/13/5 6/12/5 4/18/5 1/16/5
f 15/14/1 16/19/1 18/10/1 12/13/1 8/15/1
f 29/21/1 26/22/1 25/23/1 32/24/1
f 5/5/2 3/9/2 22/25/2 23/26/2 27/27/2
f 33/28/1 28/29/1 6/12/1 20/11/1
f 30/30/4 26/22/4 29/21/4 23/26/4
f 23/26/4 22/25/4 21/31/4 24/32/4 30/30/4
f 31/33/5 25/23/5 26/22/5 30/30/5
f 21/31/6 22/25/6 3/9/6 14/20/6 19/17/6 4/18/6
f 24/32/5 21/31/5 4/18/5 6/12/5 28/29/5
f 30/30/1 24/32/1 28/29/1 33/28/1 31/33/1
