# Blender v3.0.0 OBJ File: 'Огненная башня 1.blend'
# www.blender.org
mtllib Огненная башня 1.mtl
o Cube
v 1.000000 1.699876 -1.000000
v 1.000000 0.000000 -1.000000
v 1.000000 1.699876 1.000000
v 1.000000 0.000000 1.000000
v -1.000000 1.699876 -1.000000
v -1.000000 0.000000 -1.000000
v -1.000000 1.699876 1.000000
v -1.000000 0.000000 1.000000
v 0.719040 1.699876 0.719040
v -0.719040 1.699876 0.719040
v 0.719040 1.699876 -0.719040
v -0.719040 1.699876 -0.719040
v 0.719040 3.519605 0.719040
v -0.719040 3.519605 0.719040
v 0.719040 3.519605 -0.719040
v -0.719040 3.519605 -0.719040
v 0.292609 3.519605 0.292609
v -0.292609 3.519605 0.292609
v 0.292609 3.519605 -0.292609
v -0.292609 3.519605 -0.292609
v 0.000736 4.422590 0.000736
v -0.000736 4.422590 0.000736
v 0.000736 4.422590 -0.000736
v -0.000736 4.422590 -0.000736
vt 0.795652 0.718257
vt 0.795652 0.707761
vt 0.795652 0.707761
vt 0.795652 0.718257
vt 0.785156 0.707761
vt 0.785156 0.718257
vt 0.785156 0.676274
vt 0.795652 0.676274
vt 0.795652 0.686770
vt 0.785156 0.686770
vt 0.774661 0.697266
vt 0.785156 0.697266
vt 0.774661 0.707761
vt 0.795652 0.697266
vt 0.798505 0.688807
vt 0.798505 0.684255
vt 0.798505 0.684255
vt 0.798505 0.688807
vt 0.795652 0.676274
vt 0.795652 0.686770
vt 0.795652 0.697266
vt 0.798505 0.693359
vt 0.803057 0.693359
vt 0.803057 0.697912
vt 0.798505 0.697912
vt 0.798505 0.702464
vt 0.798505 0.697912
vt 0.798505 0.702464
vt 0.798505 0.693359
vt 0.454175 0.436597
vt 0.502856 0.436597
vt 0.502856 0.436597
vt 0.454175 0.436597
vt 0.502856 0.485278
vt 0.454175 0.485278
vt 0.454175 0.485278
vt 0.502856 0.485278
vn 0.0000 1.0000 -0.0000
vn 0.0000 0.0000 1.0000
vn -1.0000 0.0000 0.0000
vn 0.0000 -1.0000 0.0000
vn 1.0000 0.0000 0.0000
vn 0.0000 0.0000 -1.0000
vn 0.0000 0.3076 -0.9515
vn 0.9515 0.3076 0.0000
vn -0.9515 0.3076 0.0000
vn 0.0000 0.3076 0.9515
usemtl Material
s off
f 7/1/1 3/2/1 9/3/1 10/4/1
f 4/5/2 3/2/2 7/1/2 8/6/2
f 8/7/3 7/8/3 5/9/3 6/10/3
f 6/11/4 2/12/4 4/5/4 8/13/4
f 2/12/5 1/14/5 3/2/5 4/5/5
f 6/10/6 5/9/6 1/14/6 2/12/6
f 12/15/3 10/16/3 14/17/3 16/18/3
f 5/9/1 7/8/1 10/19/1 12/20/1
f 3/2/1 1/14/1 11/21/1 9/3/1
f 1/14/1 5/9/1 12/20/1 11/21/1
f 15/22/1 16/23/1 14/24/1 13/25/1
f 10/26/2 9/27/2 13/25/2 14/28/2
f 11/29/6 12/15/6 16/18/6 15/22/6
f 9/27/5 11/29/5 15/22/5 13/25/5
f 19/30/7 20/31/7 24/32/7 23/33/7
f 23/33/1 24/32/1 22/34/1 21/35/1
f 17/36/8 19/30/8 23/33/8 21/35/8
f 20/31/9 18/37/9 22/34/9 24/32/9
f 18/37/10 17/36/10 21/35/10 22/34/10
