# Blender v2.93.4 OBJ File: 'Короче мельтосу.blend'
# www.blender.org
mtllib Icetower.mtl
o Конус
v -0.673139 4.327702 -0.769946
v 0.741075 4.327702 -0.769946
v 0.741075 4.327702 0.644268
v -0.673139 4.327702 0.644268
v 0.033968 5.527702 -0.062839
v -0.673139 4.327702 -0.769946
v 0.741075 4.327702 -0.769946
v 0.741075 4.327702 0.644268
v -0.673139 4.327702 0.644268
v -0.673139 4.327702 -0.769946
v 0.741075 4.327702 -0.769946
v 0.741075 4.327702 0.644268
v -0.673139 4.327702 0.644268
v -0.673139 2.327633 -0.769946
v 0.741075 2.327633 -0.769946
v 0.741075 2.327633 0.644268
v -0.673139 2.327633 0.644268
v 0.033968 1.127633 -0.062839
v -0.673139 2.327633 -0.769946
v 0.741075 2.327633 -0.769946
v 0.741075 2.327633 0.644268
v -0.673139 2.327633 0.644268
v -0.673139 2.327633 -0.769946
v 0.741075 2.327633 -0.769946
v 0.741075 2.327633 0.644268
v -0.673139 2.327633 0.644268
v -0.673139 3.327667 -0.769946
v 0.741075 3.327667 -0.769946
v 0.741075 3.327667 0.644268
v -0.673139 3.327667 0.644268
vt 0.316406 0.087609
vt 0.316406 0.060547
vt 0.343468 0.060547
vt 0.316406 0.033485
vt 0.250000 0.490000
vt 0.490000 0.250000
vt 0.490000 0.250000
vt 0.250000 0.490000
vt 0.289344 0.060547
vt 0.010000 0.250000
vt 0.250000 0.490000
vt 0.010000 0.250000
vt 0.010000 0.250000
vt 0.250000 0.010000
vt 0.250000 0.010000
vt 0.289344 0.060547
vt 0.316406 0.087609
vt 0.316406 0.087609
vt 0.289344 0.060547
vt 0.250000 0.010000
vt 0.490000 0.250000
vt 0.343468 0.060547
vt 0.316406 0.033485
vt 0.316406 0.033485
vt 0.343468 0.060547
vt 0.316406 0.087609
vt 0.343468 0.060547
vt 0.316406 0.060547
vt 0.316406 0.033485
vt 0.250000 0.490000
vt 0.250000 0.490000
vt 0.490000 0.250000
vt 0.490000 0.250000
vt 0.289344 0.060547
vt 0.010000 0.250000
vt 0.010000 0.250000
vt 0.250000 0.490000
vt 0.010000 0.250000
vt 0.250000 0.010000
vt 0.250000 0.010000
vt 0.289344 0.060547
vt 0.316406 0.087609
vt 0.490000 0.250000
vt 0.250000 0.010000
vt 0.750000 0.490000
vt 0.510000 0.250000
vt 0.750000 0.010000
vt 0.990000 0.250000
vt 0.343468 0.060547
vt 0.316406 0.033485
vn 0.0000 0.5077 -0.8615
vn 0.8615 0.5077 0.0000
vn 0.0000 0.0000 1.0000
vn -0.0000 0.5077 0.8615
vn -0.8615 0.5077 0.0000
vn -1.0000 0.0000 -0.0000
vn 1.0000 0.0000 0.0000
vn 0.0000 0.0000 -1.0000
vn 0.0000 -0.5077 -0.8615
vn 0.8615 -0.5077 0.0000
vn -0.0000 -0.5077 0.8615
vn -0.8615 -0.5077 0.0000
vn 0.0000 1.0000 0.0000
usemtl Материал
s off
f 1/1/1 5/2/1 2/3/1
f 2/3/2 5/2/2 3/4/2
f 1/5/3 2/6/3 7/7/3 6/8/3
f 3/4/4 5/2/4 4/9/4
f 4/9/5 5/2/5 1/1/5
f 9/10/3 6/8/3 10/11/3 13/12/3
f 4/13/3 1/5/3 6/8/3 9/10/3
f 3/14/3 4/13/3 9/10/3 8/15/3
f 2/6/3 3/14/3 8/15/3 7/7/3
f 13/16/6 10/17/6 27/18/6 30/19/6
f 7/7/3 8/15/3 12/20/3 11/21/3
f 8/15/3 9/10/3 13/12/3 12/20/3
f 6/8/3 7/7/3 11/21/3 10/11/3
f 11/22/7 12/23/7 29/24/7 28/25/7
f 12/23/3 13/16/3 30/19/3 29/24/3
f 10/17/8 11/22/8 28/25/8 27/18/8
f 14/26/9 15/27/9 18/28/9
f 15/27/10 16/29/10 18/28/10
f 14/30/3 19/31/3 20/32/3 15/33/3
f 16/29/11 17/34/11 18/28/11
f 17/34/12 14/26/12 18/28/12
f 22/35/3 26/36/3 23/37/3 19/31/3
f 17/38/3 22/35/3 19/31/3 14/30/3
f 16/39/3 21/40/3 22/35/3 17/38/3
f 15/33/3 20/32/3 21/40/3 16/39/3
f 26/41/6 30/19/6 27/18/6 23/42/6
f 20/32/3 24/43/3 25/44/3 21/40/3
f 21/40/3 25/44/3 26/36/3 22/35/3
f 19/31/3 23/37/3 24/43/3 20/32/3
f 27/45/13 30/46/13 29/47/13 28/48/13
f 24/49/7 28/25/7 29/24/7 25/50/7
f 25/50/3 29/24/3 30/19/3 26/41/3
f 23/42/8 27/18/8 28/25/8 24/49/8
o Куб_Куб.003
v -1.000000 -1.000000 1.000000
v -1.866866 1.000000 1.866866
v -1.000000 -1.000000 -1.000000
v -1.866866 1.000000 -1.866866
v 1.000000 -1.000000 1.000000
v 1.866866 1.000000 1.866866
v 1.000000 -1.000000 -1.000000
v 1.866866 1.000000 -1.866866
v -1.866866 1.225129 1.866866
v -1.866866 1.225129 -1.866866
v 1.866866 1.225129 -1.866866
v 1.866866 1.225129 1.866866
vt 0.786222 0.673781
vt 0.797511 0.673781
vt 0.797511 0.685071
vt 0.786222 0.685071
vt 0.797511 0.696360
vt 0.786222 0.696360
vt 0.797511 0.707650
vt 0.786222 0.707650
vt 0.797511 0.718939
vt 0.786222 0.718939
vt 0.774932 0.696360
vt 0.774932 0.707650
vt 0.784751 0.537485
vt 0.786523 0.533228
vt 0.784751 0.526141
vt 0.786523 0.541028
vt 0.786523 0.548828
vt 0.794323 0.548828
vt 0.794323 0.556628
vt 0.786523 0.556628
vt 0.784751 0.571515
vt 0.784751 0.560171
vt 0.786523 0.564428
vt 0.784751 0.548828
vn -0.9175 -0.3977 0.0000
vn 0.0000 -0.3977 -0.9175
vn 0.9175 -0.3977 0.0000
vn 0.0000 -0.3977 0.9175
vn 0.0000 -1.0000 0.0000
vn -1.0000 0.0000 0.0000
vn 0.0000 1.0000 0.0000
vn 0.0000 0.0000 1.0000
vn 0.0000 0.0000 -1.0000
vn 1.0000 0.0000 0.0000
usemtl Материал.001
s off
f 31/51/14 32/52/14 34/53/14 33/54/14
f 33/54/15 34/53/15 38/55/15 37/56/15
f 37/56/16 38/55/16 36/57/16 35/58/16
f 35/58/17 36/57/17 32/59/17 31/60/17
f 33/61/18 37/56/18 35/58/18 31/62/18
f 34/63/19 32/64/19 39/65/19 40/66/19
f 41/67/20 40/68/20 39/69/20 42/70/20
f 32/71/21 36/72/21 42/70/21 39/73/21
f 38/74/22 34/63/22 40/66/22 41/67/22
f 36/72/23 38/74/23 41/67/23 42/70/23
