# Blender v2.93.5 OBJ File: ''
# www.blender.org
mtllib lightning.mtl
o Cube
v 0.151561 0.007565 -0.148726
v 0.151561 -1.992435 0.435031
v 0.151561 0.007565 0.154396
v -0.151561 0.007565 -0.148726
v -0.151561 -1.992435 0.435031
v -0.151561 0.007565 0.154396
v -0.151561 -2.257640 0.617916
v 0.151561 -2.257640 0.617916
v 0.151561 -1.777970 0.140370
v -0.151561 -1.777970 0.140370
v 0.151561 -2.043175 0.140370
v -0.151561 -2.043175 0.140370
v 0.151561 -1.777970 -0.097170
v -0.151561 -1.777970 -0.097170
v 0.151561 -2.043175 -0.097170
v -0.151561 -2.043175 -0.097170
v 0.151561 -3.460847 0.710750
v -0.151561 -3.460847 0.710750
v 0.151561 -3.698350 0.864087
v -0.151561 -3.698350 0.864087
v 0.151561 -3.235747 0.395739
v -0.151561 -3.235747 0.395739
v 0.151561 -3.473250 0.395739
v -0.151561 -3.473250 0.395739
v 0.151561 -3.235747 0.184833
v -0.151561 -3.235747 0.184833
v 0.151561 -3.473250 0.184833
v -0.151561 -3.473250 0.184833
v 0.151561 -5.157131 1.002186
v -0.151561 -5.157131 1.002186
vt 0.925367 0.588588
vt 0.959122 0.588588
vt 0.959122 0.622343
vt 0.925367 0.622343
vt 0.925367 0.656098
vt 0.891613 0.656098
vt 0.891613 0.622343
vt 0.891613 0.554833
vt 0.925367 0.554833
vt 0.891613 0.588588
vt 0.891613 0.554833
vt 0.891613 0.588588
vt 0.891613 0.588588
vt 0.891613 0.554833
vt 0.857858 0.622343
vt 0.857858 0.588588
vt 0.891613 0.588588
vt 0.891613 0.588588
vt 0.891613 0.554833
vt 0.891613 0.554833
vt 0.891613 0.554833
vt 0.891613 0.554833
vt 0.891613 0.554833
vt 0.891613 0.554833
vt 0.891613 0.521078
vt 0.925367 0.521078
vt 0.891613 0.554833
vt 0.891613 0.554833
vt 0.891613 0.554833
vt 0.891613 0.588588
vt 0.891613 0.588588
vt 0.857858 0.588588
vt 0.857858 0.588588
vt 0.891613 0.588588
vt 0.891613 0.588588
vt 0.891613 0.588588
vt 0.891613 0.588588
vt 0.891613 0.588588
vt 0.857858 0.588588
vn 0.0000 1.0000 0.0000
vn 0.0000 0.2005 0.9797
vn 0.0000 -0.2802 -0.9599
vn 0.0000 0.8085 0.5885
vn 0.0000 -0.9122 -0.4097
vn 0.0000 0.0000 -1.0000
vn -1.0000 0.0000 0.0000
vn 0.0000 -0.4951 -0.8688
vn 0.0000 0.8136 0.5814
vn 0.0000 -0.9013 -0.4332
vn 1.0000 0.0000 0.0000
vn 0.0000 0.3388 0.9408
vn 0.0000 -0.4367 -0.8996
vn 0.0000 0.4006 0.9162
usemtl Material
s off
f 1/1/1 4/2/1 6/3/1 3/4/1
f 6/5/2 7/6/2 8/7/2 3/4/2
f 5/8/3 4/9/3 1/1/3 2/10/3
f 10/11/1 9/12/1 13/13/1 14/14/1
f 5/8/4 2/10/4 9/12/4 10/11/4
f 7/15/5 12/16/5 11/17/5 8/7/5
f 14/14/6 13/13/6 15/18/6 16/19/6
f 28/20/7 30/21/7 24/22/7 20/23/7 12/24/7 7/25/7 6/26/7 4/9/7 5/8/7 10/11/7 14/14/7 16/19/7 18/27/7 22/28/7 26/29/7
f 16/19/8 15/18/8 17/30/8 18/27/8
f 18/27/9 17/30/9 21/31/9 22/28/9
f 20/32/10 24/33/10 23/34/10 19/35/10
f 26/29/6 25/36/6 27/37/6 28/20/6
f 23/34/11 29/38/11 27/37/11 25/36/11 21/31/11 17/30/11 15/18/11 13/13/11 9/12/11 2/10/11 1/1/11 3/4/11 8/7/11 11/17/11 19/35/11
f 22/28/1 21/31/1 25/36/1 26/29/1
f 23/34/12 24/33/12 30/39/12 29/38/12
f 28/20/13 27/37/13 29/38/13 30/39/13
f 12/16/14 20/32/14 19/35/14 11/17/14
