# Blender v3.0.0 OBJ File: 'Уголёк 4.blend'
# www.blender.org
mtllib coal 4.mtl
o Cube
v -1.000000 2.000000 -1.000000
v -1.000000 0.000000 -1.000000
v 0.000000 0.000000 -1.000000
v 0.000000 2.000000 1.000000
v 0.000000 0.000000 1.000000
v 0.000000 2.000000 -1.000000
v -0.268530 0.455650 1.000000
v -0.697107 1.697107 1.000000
v -0.697107 1.302893 1.000000
v -0.268530 0.628289 1.000000
v -1.000000 2.000000 1.000000
v -0.302893 1.558874 0.824305
v -0.302893 1.558874 1.000000
v -0.302893 1.302893 1.000000
v -0.302893 1.302893 0.824305
v -0.697107 1.302893 0.824305
v -0.697107 1.697107 0.824305
v -1.000000 0.000000 1.000000
v -1.000000 1.000000 1.000000
v 0.000000 0.413493 1.000000
v 0.000000 0.586507 1.000000
v 0.000000 0.586507 0.779590
v 0.000000 0.413493 0.779590
v -0.268530 0.455650 0.779590
v -0.268530 0.628289 0.779590
v -0.446023 2.261740 -0.569186
v -0.446023 2.261740 -0.553769
v -0.453732 2.261740 -0.569186
v -0.453732 2.261740 -0.553769
v -0.398563 2.000000 0.236065
v -0.178424 2.000000 -0.204214
v -0.178424 2.000000 0.236065
v -0.398563 2.000000 -0.204214
v -1.295663 1.751771 -1.305412
v -1.295663 1.745278 -1.311905
v -1.295663 1.751771 -1.311905
v -1.295663 1.745278 -1.305412
v -1.000000 1.277484 -0.279920
v -1.000000 1.603257 -0.279920
v -1.000000 1.277484 -0.605693
v -1.000000 1.603257 -0.605693
v -0.979473 1.952510 -1.596932
v -0.979473 1.944523 -1.596932
v -0.985916 1.944523 -1.596932
v -0.985916 1.952510 -1.596932
v -0.554467 1.747046 -1.000000
v -0.554467 1.474977 -1.000000
v -0.773919 1.474977 -1.000000
v -0.773919 1.747046 -1.000000
v -0.813968 2.000000 -0.813043
v -0.506846 2.000000 -0.198799
v -0.506846 2.000000 -0.813043
v -0.813968 2.000000 -0.198799
v -0.925204 2.219560 -1.307247
v -0.929324 2.219560 -1.307247
v -0.929324 2.219560 -1.315487
v -0.925204 2.219560 -1.315487
v -0.153647 2.000000 -1.000000
v -0.153647 1.692706 -1.000000
v 0.000000 1.692706 -1.000000
v 0.000000 2.000000 -1.000000
v 0.000000 1.692706 -1.000000
v -0.153647 1.692706 -1.000000
v -0.153647 2.000000 -1.000000
v 0.000000 2.000000 -1.000000
v 0.000000 2.217972 -1.701647
v -0.002024 2.217972 -1.701647
v -0.002024 2.222020 -1.701647
v 0.000000 2.222020 -1.701647
v -0.416447 1.607055 -1.000000
v -0.416447 1.183965 -1.000000
v -0.216314 1.183965 -1.000000
v -0.216314 1.607055 -1.000000
v -0.479544 1.703033 -1.617912
v -0.481303 1.703033 -1.617912
v -0.481303 1.706752 -1.617912
v -0.479544 1.706752 -1.617912
v -0.367286 2.000000 -0.853995
v -0.167927 2.000000 -0.455277
v -0.167927 2.000000 -0.853995
v -0.367286 2.000000 -0.455277
v -0.269127 2.100341 -0.998914
v -0.266086 2.100341 -0.998914
v -0.266086 2.100341 -0.992833
v -0.269127 2.100341 -0.992833
v -1.000000 1.083845 -0.888925
v -1.000000 0.892491 -0.888925
v -1.000000 1.083845 -0.451109
v -1.000000 0.892491 -0.451109
v -1.000000 0.988168 -0.451109
v -1.291768 1.330992 -1.453697
v -1.291768 1.330992 -1.439204
v -1.291768 1.334159 -1.439204
v -1.291768 1.337326 -1.439204
v -1.291768 1.337326 -1.453697
v -1.000000 1.851636 -0.027809
v -1.000000 1.634747 -0.027809
v -1.000000 1.634747 0.189080
v -1.000000 1.743192 0.189080
v -1.099059 1.886565 -0.485238
v -1.099059 1.886565 -0.475382
v -1.099059 1.891493 -0.475382
v -1.099059 1.896421 -0.475382
v -1.099059 1.896421 -0.485238
v 1.000000 2.000000 -1.000000
v 1.000000 0.000000 -1.000000
v 0.268530 0.455650 1.000000
v 0.697107 1.697107 1.000000
v 0.697107 1.302893 1.000000
v 0.268530 0.628289 1.000000
v 1.000000 2.000000 1.000000
v 0.302893 1.558874 0.824305
v 0.302893 1.558874 1.000000
v 0.302893 1.302893 1.000000
v 0.302893 1.302893 0.824305
v 0.697107 1.302893 0.824305
v 0.697107 1.697107 0.824305
v 1.000000 0.000000 1.000000
v 1.000000 1.000000 1.000000
v 0.268530 0.455650 0.779590
v 0.268530 0.628289 0.779590
v 0.446023 2.261740 -0.569186
v 0.446023 2.261740 -0.553769
v 0.453732 2.261740 -0.569186
v 0.453732 2.261740 -0.553769
v 0.398563 2.000000 0.236065
v 0.178424 2.000000 -0.204214
v 0.178424 2.000000 0.236065
v 0.398563 2.000000 -0.204214
v 1.295663 1.751771 -1.305412
v 1.295663 1.745278 -1.311905
v 1.295663 1.751771 -1.311905
v 1.295663 1.745278 -1.305412
v 1.000000 1.277484 -0.279920
v 1.000000 1.603257 -0.279920
v 1.000000 1.277484 -0.605693
v 1.000000 1.603257 -0.605693
v 0.979473 1.952510 -1.596932
v 0.979473 1.944523 -1.596932
v 0.985916 1.944523 -1.596932
v 0.985916 1.952510 -1.596932
v 0.554467 1.747046 -1.000000
v 0.554467 1.474977 -1.000000
v 0.773919 1.474977 -1.000000
v 0.773919 1.747046 -1.000000
v 0.813968 2.000000 -0.813043
v 0.506846 2.000000 -0.198799
v 0.506846 2.000000 -0.813043
v 0.813968 2.000000 -0.198799
v 0.925204 2.219560 -1.307247
v 0.929324 2.219560 -1.307247
v 0.929324 2.219560 -1.315487
v 0.925204 2.219560 -1.315487
v 0.153647 2.000000 -1.000000
v 0.153647 1.692706 -1.000000
v 0.153647 1.692706 -1.000000
v 0.153647 2.000000 -1.000000
v 0.002024 2.217972 -1.701647
v 0.002024 2.222020 -1.701647
v 0.416447 1.607055 -1.000000
v 0.416447 1.183965 -1.000000
v 0.216314 1.183965 -1.000000
v 0.216314 1.607055 -1.000000
v 0.479544 1.703033 -1.617912
v 0.481303 1.703033 -1.617912
v 0.481303 1.706752 -1.617912
v 0.479544 1.706752 -1.617912
v 0.367286 2.000000 -0.853995
v 0.167927 2.000000 -0.455277
v 0.167927 2.000000 -0.853995
v 0.367286 2.000000 -0.455277
v 0.269127 2.100341 -0.998914
v 0.266086 2.100341 -0.998914
v 0.266086 2.100341 -0.992833
v 0.269127 2.100341 -0.992833
v 1.000000 1.083845 -0.888925
v 1.000000 0.892491 -0.888925
v 1.000000 1.083845 -0.451109
v 1.000000 0.892491 -0.451109
v 1.000000 0.988168 -0.451109
v 1.291768 1.330992 -1.453697
v 1.291768 1.330992 -1.439204
v 1.291768 1.334159 -1.439204
v 1.291768 1.337326 -1.439204
v 1.291768 1.337326 -1.453697
v 1.000000 1.851636 -0.027809
v 1.000000 1.634747 -0.027809
v 1.000000 1.634747 0.189080
v 1.000000 1.743192 0.189080
v 1.099059 1.886565 -0.485238
v 1.099059 1.886565 -0.475382
v 1.099059 1.891493 -0.475382
v 1.099059 1.896421 -0.475382
v 1.099059 1.896421 -0.485238
vt 0.803900 0.863864
vt 0.808389 0.863864
vt 0.808389 0.872843
vt 0.803900 0.872843
vt 0.798555 0.872843
vt 0.798087 0.872843
vt 0.798087 0.872843
vt 0.798555 0.872843
vt 0.790433 0.854886
vt 0.799411 0.854886
vt 0.799411 0.859375
vt 0.790433 0.859375
vt 0.781454 0.863864
vt 0.785944 0.863864
vt 0.785944 0.872843
vt 0.781454 0.872843
vt 0.790433 0.845907
vt 0.794922 0.845907
vt 0.799411 0.845907
vt 0.788104 0.872843
vt 0.790129 0.872843
vt 0.794922 0.872843
vt 0.788575 0.872843
vt 0.803397 0.872843
vt 0.802094 0.872843
vt 0.696861 0.449219
vt 0.693444 0.449219
vt 0.722722 0.449219
vt 0.732236 0.449219
vt 0.803397 0.872843
vt 0.802094 0.872843
vt 0.717791 0.470499
vt 0.718263 0.470499
vt 0.720121 0.470499
vt 0.719816 0.470499
vt 0.788104 0.872843
vt 0.790129 0.872843
vt 0.788575 0.872843
vt 0.790434 0.872843
vt 0.790434 0.872843
vt 0.470499 0.544718
vt 0.466010 0.544718
vt 0.466010 0.544718
vt 0.470499 0.544718
vt 0.466010 0.535739
vt 0.466010 0.535739
vt 0.470499 0.535739
vt 0.470499 0.535739
vt 0.420505 0.539267
vt 0.420505 0.548245
vt 0.420505 0.548245
vt 0.420505 0.539267
vt 0.411526 0.548245
vt 0.411526 0.539267
vt 0.411526 0.539267
vt 0.411526 0.548245
vt 0.559964 0.464261
vt 0.568942 0.464261
vt 0.568942 0.464261
vt 0.559964 0.464261
vt 0.568942 0.468750
vt 0.568942 0.468750
vt 0.559964 0.468750
vt 0.559964 0.468750
vt 0.485541 0.473239
vt 0.485541 0.482218
vt 0.490030 0.482218
vt 0.490030 0.473239
vt 0.485541 0.473239
vt 0.490030 0.473239
vt 0.490030 0.482218
vt 0.485541 0.482218
vt 0.620511 0.450589
vt 0.620511 0.455078
vt 0.629489 0.455078
vt 0.629489 0.450589
vt 0.620511 0.450589
vt 0.629489 0.450589
vt 0.629489 0.450589
vt 0.620511 0.450589
vt 0.629489 0.455078
vt 0.620511 0.455078
vt 0.629489 0.455078
vt 0.620511 0.455078
vt 0.554105 0.534573
vt 0.554105 0.539062
vt 0.563083 0.539062
vt 0.563083 0.534573
vt 0.554105 0.534573
vt 0.563083 0.534573
vt 0.563083 0.539062
vt 0.554105 0.539062
vt 0.466010 0.445895
vt 0.466010 0.454874
vt 0.470499 0.454874
vt 0.470499 0.445895
vt 0.466010 0.445895
vt 0.470499 0.445895
vt 0.470499 0.454874
vt 0.466010 0.454874
vt 0.536526 0.517782
vt 0.536526 0.526761
vt 0.545505 0.526761
vt 0.545505 0.517782
vt 0.541016 0.517782
vt 0.536526 0.517782
vt 0.541016 0.517782
vt 0.545505 0.517782
vt 0.545505 0.526761
vt 0.536526 0.526761
vt 0.399808 0.547079
vt 0.404297 0.547079
vt 0.408786 0.547079
vt 0.408786 0.556058
vt 0.399808 0.556058
vt 0.408786 0.556058
vt 0.399808 0.556058
vt 0.399808 0.547079
vt 0.404297 0.547079
vt 0.808389 0.872843
vt 0.808389 0.863864
vt 0.798555 0.872843
vt 0.798555 0.872843
vt 0.798087 0.872843
vt 0.798087 0.872843
vt 0.790433 0.854886
vt 0.799411 0.854886
vt 0.781454 0.863864
vt 0.781454 0.872843
vt 0.790433 0.845907
vt 0.799411 0.845907
vt 0.794922 0.845907
vt 0.788104 0.872843
vt 0.794922 0.872843
vt 0.790129 0.872843
vt 0.803397 0.872843
vt 0.802094 0.872843
vt 0.696861 0.449219
vt 0.732236 0.449219
vt 0.722722 0.449219
vt 0.693444 0.449219
vt 0.803397 0.872843
vt 0.802094 0.872843
vt 0.717791 0.470499
vt 0.719816 0.470499
vt 0.790129 0.872843
vt 0.788104 0.872843
vt 0.470499 0.544718
vt 0.470499 0.544718
vt 0.466010 0.544718
vt 0.466010 0.544718
vt 0.466010 0.535739
vt 0.466010 0.535739
vt 0.470499 0.535739
vt 0.470499 0.535739
vt 0.420505 0.539267
vt 0.420505 0.539267
vt 0.420505 0.548245
vt 0.420505 0.548245
vt 0.411526 0.548245
vt 0.411526 0.548245
vt 0.411526 0.539267
vt 0.411526 0.539267
vt 0.559964 0.464261
vt 0.559964 0.464261
vt 0.568942 0.464261
vt 0.568942 0.464261
vt 0.568942 0.468750
vt 0.568942 0.468750
vt 0.559964 0.468750
vt 0.559964 0.468750
vt 0.485541 0.473239
vt 0.490030 0.473239
vt 0.490030 0.482218
vt 0.485541 0.482218
vt 0.485541 0.473239
vt 0.485541 0.482218
vt 0.490030 0.482218
vt 0.490030 0.473239
vt 0.620511 0.450589
vt 0.629489 0.450589
vt 0.620511 0.450589
vt 0.620511 0.450589
vt 0.629489 0.450589
vt 0.629489 0.450589
vt 0.554105 0.534573
vt 0.563083 0.534573
vt 0.563083 0.539062
vt 0.554105 0.539062
vt 0.554105 0.534573
vt 0.554105 0.539062
vt 0.563083 0.539062
vt 0.563083 0.534573
vt 0.466010 0.445895
vt 0.470499 0.445895
vt 0.470499 0.454874
vt 0.466010 0.454874
vt 0.466010 0.445895
vt 0.466010 0.454874
vt 0.470499 0.454874
vt 0.470499 0.445895
vt 0.536526 0.517782
vt 0.541016 0.517782
vt 0.545505 0.517782
vt 0.545505 0.526761
vt 0.536526 0.526761
vt 0.536526 0.517782
vt 0.536526 0.526761
vt 0.545505 0.526761
vt 0.545505 0.517782
vt 0.541016 0.517782
vt 0.399808 0.547079
vt 0.399808 0.556058
vt 0.408786 0.556058
vt 0.408786 0.547079
vt 0.404297 0.547079
vt 0.408786 0.556058
vt 0.399808 0.556058
vt 0.399808 0.547079
vt 0.404297 0.547079
vn 0.0000 1.0000 0.0000
vn 0.0000 0.0000 -1.0000
vn 0.0000 -1.0000 0.0000
vn -1.0000 0.0000 0.0000
vn 0.0000 0.0000 1.0000
vn 1.0000 0.0000 0.0000
vn -0.3309 -0.9437 0.0000
vn 0.1551 0.9879 0.0000
vn -0.1537 -0.9881 0.0000
vn 0.0000 0.9510 0.3091
vn 0.6890 0.7247 0.0000
vn -0.9840 -0.1784 0.0000
vn 0.0000 -0.8005 -0.5994
vn 0.4489 0.8936 0.0000
vn -0.8453 -0.5343 0.0000
vn -0.9423 0.0000 0.3347
vn 0.0000 0.9456 0.3255
vn 0.8146 0.0000 -0.5800
vn 0.0000 -0.7860 -0.6183
vn 0.0000 -0.9163 -0.4004
vn 0.0000 0.9809 0.1943
vn 0.4647 0.8855 0.0000
vn -0.8853 -0.4651 0.0000
vn 0.9224 0.0000 -0.3862
vn -0.9609 0.0000 0.2770
vn -0.9774 0.0000 -0.2112
vn 0.0000 0.9534 0.3017
vn 0.0000 -0.8005 -0.5993
vn -0.9945 0.0000 0.1044
vn 0.0000 0.9872 0.1593
vn 0.9200 0.0000 -0.3919
vn 0.0000 -0.7657 -0.6432
vn 0.0000 -0.8105 -0.5858
vn 0.0000 0.9834 0.1815
vn 0.7041 0.7101 0.0000
vn -0.7041 0.7101 0.0000
vn 0.8884 0.0000 -0.4590
vn -0.9591 0.0000 0.2832
vn 0.6558 0.7549 0.0000
vn -0.8325 -0.5540 0.0000
vn 0.9773 0.0000 -0.2116
vn -0.9891 0.0000 0.1475
vn -0.8567 0.4614 0.2307
vn -0.9306 -0.3661 0.0000
vn 0.3309 -0.9437 0.0000
vn -0.1551 0.9879 0.0000
vn 0.1537 -0.9881 0.0000
vn -0.6890 0.7247 0.0000
vn 0.9840 -0.1784 0.0000
vn -0.4489 0.8936 0.0000
vn 0.8453 -0.5343 0.0000
vn 0.9423 0.0000 0.3347
vn -0.8146 0.0000 -0.5800
vn -0.4647 0.8855 0.0000
vn 0.8853 -0.4651 0.0000
vn -0.9224 0.0000 -0.3862
vn 0.9609 0.0000 0.2770
vn 0.9774 0.0000 -0.2112
vn 0.9945 0.0000 0.1044
vn -0.9200 0.0000 -0.3919
vn -0.8884 0.0000 -0.4590
vn 0.9591 0.0000 0.2832
vn -0.6558 0.7549 0.0000
vn 0.8325 -0.5540 0.0000
vn -0.9773 0.0000 -0.2116
vn 0.9891 0.0000 0.1475
vn 0.8567 0.4614 0.2307
vn 0.9306 -0.3661 0.0000
usemtl Material
s off
f 6/1/1 1/2/1 11/3/1 4/4/1
f 9/5/1 14/6/1 15/7/1 16/8/1
f 2/9/2 1/10/2 6/11/2 3/12/2
f 2/13/3 3/14/3 5/15/3 18/16/3
f 18/17/4 19/18/4 11/19/4 1/10/4 2/9/4
f 7/20/5 10/21/5 19/22/5 18/16/5 5/15/5 20/23/5
f 8/24/5 13/25/5 4/4/5 11/3/5
f 16/26/5 15/27/5 12/28/5 17/29/5
f 8/24/6 9/5/6 16/8/6 17/30/6
f 13/25/7 8/24/7 17/30/7 12/31/7
f 14/6/4 13/25/4 12/31/4 15/7/4
f 24/32/5 23/33/5 22/34/5 25/35/5
f 10/21/6 7/20/6 24/36/6 25/37/6
f 7/20/8 20/23/8 23/38/8 24/36/8
f 21/39/9 10/21/9 25/37/9 22/40/9
f 30/41/10 32/42/10 28/43/10 26/44/10
f 32/42/11 31/45/11 29/46/11 28/43/11
f 33/47/12 30/41/12 26/44/12 27/48/12
f 31/45/13 33/47/13 27/48/13 29/46/13
f 29/46/1 27/48/1 26/44/1 28/43/1
f 31/45/3 32/42/3 30/41/3 33/47/3
f 10/21/5 21/39/5 4/4/5 13/25/5 14/6/5 9/5/5 8/24/5 11/3/5 19/22/5
f 39/49/14 41/50/14 36/51/14 34/52/14
f 40/53/15 38/54/15 37/55/15 35/56/15
f 37/55/4 34/52/4 36/51/4 35/56/4
f 38/54/6 40/53/6 41/50/6 39/49/6
f 48/57/16 49/58/16 45/59/16 44/60/16
f 49/58/17 46/61/17 42/62/17 45/59/17
f 46/61/18 47/63/18 43/64/18 42/62/18
f 47/63/19 48/57/19 44/60/19 43/64/19
f 44/60/2 45/59/2 42/62/2 43/64/2
f 48/57/5 47/63/5 46/61/5 49/58/5
f 52/65/3 51/66/3 53/67/3 50/68/3
f 57/69/1 56/70/1 55/71/1 54/72/1
f 52/65/20 50/68/20 56/70/20 57/69/20
f 53/67/21 51/66/21 54/72/21 55/71/21
f 51/66/22 52/65/22 57/69/22 54/72/22
f 50/68/23 53/67/23 55/71/23 56/70/23
f 41/50/24 40/53/24 35/56/24 36/51/24
f 38/54/25 39/49/25 34/52/25 37/55/25
f 59/73/5 60/74/5 61/75/5 58/76/5
f 63/77/26 64/78/26 68/79/26 67/80/26
f 59/73/5 58/76/5 64/78/5 63/77/5
f 58/76/5 61/75/5 65/81/5 64/78/5
f 61/75/5 60/74/5 62/82/5 65/81/5
f 60/74/5 59/73/5 63/77/5 62/82/5
f 67/80/2 68/79/2 69/83/2 66/84/2
f 64/78/27 65/81/27 69/83/27 68/79/27
f 65/81/6 62/82/6 66/84/6 69/83/6
f 62/82/28 63/77/28 67/80/28 66/84/28
f 71/85/5 72/86/5 73/87/5 70/88/5
f 75/89/2 76/90/2 77/91/2 74/92/2
f 71/85/29 70/88/29 76/90/29 75/89/29
f 70/88/30 73/87/30 77/91/30 76/90/30
f 73/87/31 72/86/31 74/92/31 77/91/31
f 72/86/32 71/85/32 75/89/32 74/92/32
f 80/93/3 79/94/3 81/95/3 78/96/3
f 85/97/1 84/98/1 83/99/1 82/100/1
f 80/93/33 78/96/33 84/98/33 85/97/33
f 81/95/34 79/94/34 82/100/34 83/99/34
f 79/94/35 80/93/35 85/97/35 82/100/35
f 78/96/36 81/95/36 83/99/36 84/98/36
f 89/101/6 87/102/6 86/103/6 88/104/6 90/105/6
f 92/106/4 93/107/4 94/108/4 95/109/4 91/110/4
f 86/103/37 87/102/37 91/110/37 95/109/37
f 90/105/38 88/104/38 94/108/38 93/107/38
f 89/101/38 90/105/38 93/107/38 92/106/38
f 88/104/39 86/103/39 95/109/39 94/108/39
f 87/102/40 89/101/40 92/106/40 91/110/40
f 101/111/4 102/112/4 103/113/4 104/114/4 100/115/4
f 96/116/41 97/117/41 100/115/41 104/114/41
f 98/118/42 99/119/42 102/112/42 101/111/42
f 102/112/43 99/119/43 96/116/43 104/114/43
f 97/117/44 98/118/44 101/111/44 100/115/44
f 6/1/1 4/4/1 111/120/1 105/121/1
f 109/122/1 116/123/1 115/124/1 114/125/1
f 106/126/2 3/12/2 6/11/2 105/127/2
f 106/128/3 118/129/3 5/15/3 3/14/3
f 118/130/6 106/126/6 105/127/6 111/131/6 119/132/6
f 107/133/5 20/23/5 5/15/5 118/129/5 119/134/5 110/135/5
f 108/136/5 111/120/5 4/4/5 113/137/5
f 116/138/5 117/139/5 112/140/5 115/141/5
f 108/136/4 117/142/4 116/123/4 109/122/4
f 113/137/45 112/143/45 117/142/45 108/136/45
f 114/125/6 115/124/6 112/143/6 113/137/6
f 120/144/5 121/145/5 22/34/5 23/33/5
f 110/135/4 121/146/4 120/147/4 107/133/4
f 107/133/46 120/147/46 23/38/46 20/23/46
f 21/39/47 22/40/47 121/146/47 110/135/47
f 126/148/10 122/149/10 124/150/10 128/151/10
f 128/151/48 124/150/48 125/152/48 127/153/48
f 129/154/49 123/155/49 122/149/49 126/148/49
f 127/153/13 125/152/13 123/155/13 129/154/13
f 125/152/1 124/150/1 122/149/1 123/155/1
f 127/153/3 129/154/3 126/148/3 128/151/3
f 110/135/5 119/134/5 111/120/5 108/136/5 109/122/5 114/125/5 113/137/5 4/4/5 21/39/5
f 135/156/50 130/157/50 132/158/50 137/159/50
f 136/160/51 131/161/51 133/162/51 134/163/51
f 133/162/6 131/161/6 132/158/6 130/157/6
f 134/163/4 135/156/4 137/159/4 136/160/4
f 144/164/52 140/165/52 141/166/52 145/167/52
f 145/167/17 141/166/17 138/168/17 142/169/17
f 142/169/53 138/168/53 139/170/53 143/171/53
f 143/171/19 139/170/19 140/165/19 144/164/19
f 140/165/2 139/170/2 138/168/2 141/166/2
f 144/164/5 145/167/5 142/169/5 143/171/5
f 148/172/3 146/173/3 149/174/3 147/175/3
f 153/176/1 150/177/1 151/178/1 152/179/1
f 148/172/20 153/176/20 152/179/20 146/173/20
f 149/174/21 151/178/21 150/177/21 147/175/21
f 147/175/54 150/177/54 153/176/54 148/172/54
f 146/173/55 152/179/55 151/178/55 149/174/55
f 137/159/56 132/158/56 131/161/56 136/160/56
f 134/163/57 133/162/57 130/157/57 135/156/57
f 155/180/5 154/181/5 61/75/5 60/74/5
f 156/182/58 158/183/58 159/184/58 157/185/58
f 155/180/5 156/182/5 157/185/5 154/181/5
f 154/181/5 157/185/5 65/81/5 61/75/5
f 60/74/5 62/82/5 156/182/5 155/180/5
f 158/183/2 66/84/2 69/83/2 159/184/2
f 157/185/27 159/184/27 69/83/27 65/81/27
f 62/82/28 66/84/28 158/183/28 156/182/28
f 161/186/5 160/187/5 163/188/5 162/189/5
f 165/190/2 164/191/2 167/192/2 166/193/2
f 161/186/59 165/190/59 166/193/59 160/187/59
f 160/187/30 166/193/30 167/192/30 163/188/30
f 163/188/60 167/192/60 164/191/60 162/189/60
f 162/189/32 164/191/32 165/190/32 161/186/32
f 170/194/3 168/195/3 171/196/3 169/197/3
f 175/198/1 172/199/1 173/200/1 174/201/1
f 170/194/33 175/198/33 174/201/33 168/195/33
f 171/196/34 173/200/34 172/199/34 169/197/34
f 169/197/36 172/199/36 175/198/36 170/194/36
f 168/195/35 174/201/35 173/200/35 171/196/35
f 179/202/4 180/203/4 178/204/4 176/205/4 177/206/4
f 182/207/6 181/208/6 185/209/6 184/210/6 183/211/6
f 176/205/61 185/209/61 181/208/61 177/206/61
f 180/203/62 183/211/62 184/210/62 178/204/62
f 179/202/62 182/207/62 183/211/62 180/203/62
f 178/204/63 184/210/63 185/209/63 176/205/63
f 177/206/64 181/208/64 182/207/64 179/202/64
f 191/212/6 190/213/6 194/214/6 193/215/6 192/216/6
f 186/217/65 194/214/65 190/213/65 187/218/65
f 188/219/66 191/212/66 192/216/66 189/220/66
f 192/216/67 194/214/67 186/217/67 189/220/67
f 187/218/68 190/213/68 191/212/68 188/219/68
