# Blender v3.0.0 OBJ File: 'Призрак 4.blend'
# www.blender.org
mtllib ghost 4.mtl
o Cube
v -0.773010 2.038805 -0.773010
v 0.773010 2.038805 -0.773010
v -0.854298 0.620488 -0.320729
v -0.854298 1.234304 -0.320729
v 1.000000 -1.716465 -1.000000
v 1.000000 1.716465 -1.000000
v -0.999690 1.444702 -0.669258
v -0.999690 0.620488 -0.669258
v -0.854298 0.620488 -0.669258
v -0.854298 1.444702 -0.669258
v -0.999690 1.234304 -0.320729
v -0.999690 0.620488 -0.320729
v -1.000000 1.716465 -1.000000
v -1.000000 -1.716465 -1.000000
v 1.105617 -2.164000 -1.105617
v -1.105617 -2.164000 -1.105617
v -0.298353 0.512112 -1.000000
v -0.298353 -0.512112 -1.000000
v 0.298353 0.512112 -1.000000
v 0.298353 -0.512112 -1.000000
v 0.298353 -0.512112 -1.000000
v 0.298353 0.512112 -1.000000
v -0.298353 0.512112 -1.000000
v 0.298353 -0.512112 -1.663715
v 0.298353 0.512112 -1.663715
v -1.922458 0.512112 -1.000000
v -1.922458 -0.512112 -1.000000
v -1.922458 0.512112 -1.663715
v -1.922458 -0.512112 -1.663715
v -0.298353 -0.512112 -1.000000
v -0.298353 -0.512112 -1.663715
v -1.922458 -0.512112 -1.000000
v -1.922458 -0.512112 -1.663715
v -0.773010 2.038805 0.773010
v 0.773010 2.038805 0.773010
v -0.854298 0.620488 0.320729
v -0.854298 1.234304 0.320729
v 1.000000 -1.716465 1.000000
v 1.000000 1.716465 1.000000
v -0.999690 1.444702 0.669258
v -0.999690 0.620488 0.669258
v -0.854298 0.620488 0.669258
v -0.854298 1.444702 0.669258
v 1.000000 -1.716465 -0.000000
v -0.999690 1.234304 0.320729
v 1.000000 1.716465 -0.000000
v -0.999690 0.620488 0.320729
v -0.773010 2.038805 0.000000
v 0.773010 2.038805 -0.000000
v 0.001179 2.199874 -0.000000
v 0.001437 2.199874 -0.000000
v 1.105617 -2.164000 -0.000000
v -1.105617 -2.164000 0.000000
v -1.000000 1.716465 1.000000
v -1.000000 -1.716465 1.000000
v -1.000000 1.716465 0.000000
v -1.000000 -1.716465 0.000000
v 1.105617 -2.164000 1.105617
v -1.105617 -2.164000 1.105617
v -0.298353 0.512112 1.000000
v -0.298353 -0.512112 1.000000
v 0.298353 0.512112 1.000000
v 0.298353 -0.512112 1.000000
v 0.298353 -0.512112 1.000000
v 0.298353 0.512112 1.000000
v -0.298353 0.512112 1.000000
v 0.298353 -0.512112 1.663715
v 0.298353 0.512112 1.663715
v -1.922458 0.512112 1.000000
v -1.922458 -0.512112 1.000000
v -1.922457 0.512112 1.663715
v -1.922457 -0.512112 1.663715
v -0.298353 -0.512112 1.000000
v -0.298353 -0.512112 1.663715
v -1.922458 -0.512112 1.000000
v -1.922457 -0.512112 1.663715
vt 0.784712 0.466521
vt 0.784712 0.465276
vt 0.784712 0.465276
vt 0.784712 0.466521
vt 0.793066 0.478785
vt 0.793066 0.468476
vt 0.793066 0.468476
vt 0.793066 0.478785
vt 0.793066 0.442703
vt 0.793066 0.437549
vt 0.793066 0.437549
vt 0.793066 0.442703
vt 0.791111 0.465276
vt 0.791111 0.466521
vt 0.791111 0.466521
vt 0.791111 0.465276
vt 0.793066 0.442703
vt 0.782757 0.478785
vt 0.782757 0.468476
vt 0.782757 0.478785
vt 0.782757 0.468476
vt 0.782757 0.463321
vt 0.782757 0.463321
vt 0.782757 0.437549
vt 0.782757 0.442703
vt 0.782757 0.442703
vt 0.782757 0.437549
vt 0.769290 0.942805
vt 0.826220 0.942805
vt 0.826220 0.953881
vt 0.769290 0.953881
vt 0.793066 0.463321
vt 0.793066 0.463321
vt 0.793066 0.463321
vt 0.772448 0.463321
vt 0.772448 0.468476
vt 0.804652 0.437466
vt 0.804652 0.456181
vt 0.804652 0.456181
vt 0.804652 0.437466
vt 0.785936 0.456181
vt 0.785936 0.456181
vt 0.785936 0.437466
vt 0.785936 0.437466
vt -0.002461 -0.086127
vt -0.002461 -0.086127
vt -0.002461 -0.086127
vt -0.002461 -0.086127
vt 0.804652 0.456181
vt 0.804652 0.437466
vt 0.804652 0.437466
vt 0.785936 0.456181
vt 0.785936 0.437466
vt 0.785936 0.437466
vt 0.785936 0.437466
vt 0.785936 0.437466
vt 0.785936 0.437466
vt 0.803375 0.463321
vt 0.784712 0.466521
vt 0.784712 0.466521
vt 0.784712 0.465276
vt 0.784712 0.465276
vt 0.793066 0.478785
vt 0.793066 0.478785
vt 0.793066 0.468476
vt 0.793066 0.468476
vt 0.793066 0.437549
vt 0.793066 0.437549
vt 0.791111 0.465276
vt 0.791111 0.465276
vt 0.791111 0.466521
vt 0.791111 0.466521
vt 0.782757 0.478785
vt 0.782757 0.468476
vt 0.782757 0.468476
vt 0.782757 0.478785
vt 0.782757 0.437549
vt 0.782757 0.437549
vt 0.769290 0.942805
vt 0.769290 0.953881
vt 0.826220 0.953881
vt 0.826220 0.942805
vt 0.772448 0.468476
vt 0.804652 0.437466
vt 0.804652 0.437466
vt 0.804652 0.456181
vt 0.804652 0.456181
vt 0.785936 0.456181
vt 0.785936 0.456181
vt 0.785936 0.437466
vt 0.785936 0.437466
vt -0.002461 -0.086127
vt -0.002461 -0.086127
vt -0.002461 -0.086127
vt -0.002461 -0.086127
vt 0.804652 0.437466
vt 0.804652 0.437466
vt 0.804652 0.456181
vt 0.785936 0.456181
vt 0.785936 0.437466
vt 0.785936 0.437466
vt 0.785936 0.437466
vt 0.785936 0.437466
vt 0.785936 0.437466
vn 0.0000 1.0000 -0.0000
vn -0.0000 0.5758 -0.8176
vn 0.8176 0.5758 -0.0000
vn -0.0000 -0.8561 -0.5168
vn 0.2043 0.9789 0.0000
vn -0.0000 0.0000 -1.0000
vn -0.0000 0.2297 -0.9733
vn -0.9733 0.2297 0.0000
vn 0.9733 0.2297 -0.0000
vn -1.0000 0.0000 0.0000
vn -0.2037 0.9790 0.0000
vn 0.0000 0.0000 1.0000
vn -0.8176 0.5758 0.0000
vn 1.0000 0.0000 -0.0000
vn -1.0000 -0.0008 -0.0001
vn -1.0000 0.0001 0.0000
vn 0.0000 -1.0000 0.0000
vn -0.0000 0.9790 -0.2040
vn 0.0000 0.5758 0.8176
vn 0.0000 -0.8561 0.5168
vn 0.0000 0.2297 0.9733
vn -1.0000 -0.0008 0.0001
vn 0.0000 0.9790 0.2040
usemtl Материал
s off
f 8/1/1 12/2/1 3/3/1 9/4/1
f 6/5/2 13/6/2 1/7/2 2/8/2
f 46/9/3 6/10/3 2/11/3 49/12/3
f 11/13/4 7/14/4 10/15/4 4/16/4
f 49/12/5 2/11/5 51/17/5
f 5/18/6 14/19/6 13/6/6 6/5/6
f 14/19/7 5/18/7 15/20/7 16/21/7
f 57/22/8 14/19/8 16/21/8 53/23/8
f 5/24/9 44/25/9 52/26/9 15/27/9
f 3/28/10 4/29/10 10/30/10 9/31/10
f 12/2/6 11/13/6 4/16/6 3/3/6
f 1/7/11 48/32/11 50/33/11
f 7/14/12 8/1/12 9/4/12 10/15/12
f 13/6/13 56/34/13 48/32/13 1/7/13
f 5/24/14 6/10/14 46/9/14 44/25/14
f 7/14/15 11/13/15 56/34/15 13/6/15
f 11/13/16 12/2/16 8/1/16 7/14/16 13/6/16 14/19/16 57/22/16 56/34/16
f 52/35/17 53/23/17 16/21/17 15/36/17
f 17/37/12 19/38/12 22/39/12 23/40/12
f 19/38/12 20/41/12 21/42/12 22/39/12
f 20/41/12 18/43/12 30/44/12 21/42/12
f 18/45/12 17/46/12 23/47/12 30/48/12
f 23/40/1 22/39/1 25/49/1 28/50/1 26/51/1
f 22/39/14 21/42/14 24/52/14 25/49/14
f 32/53/10 26/51/10 28/50/10 33/54/10
f 30/44/12 23/40/12 26/51/12 32/53/12
f 29/55/17 31/56/17 24/52/17 21/42/17 30/44/17 27/57/17
f 29/55/12 27/57/12 32/53/12 33/54/12
f 27/57/12 30/44/12 32/53/12
f 29/55/12 33/54/12 31/56/12
f 31/56/6 33/54/6 28/50/6 25/49/6 24/52/6
f 50/33/18 51/58/18 2/8/18 1/7/18
f 41/59/1 42/60/1 36/61/1 47/62/1
f 39/63/19 35/64/19 34/65/19 54/66/19
f 46/9/3 49/12/3 35/67/3 39/68/3
f 45/69/20 37/70/20 43/71/20 40/72/20
f 49/12/5 51/17/5 35/67/5
f 38/73/12 39/63/12 54/66/12 55/74/12
f 55/74/21 59/75/21 58/76/21 38/73/21
f 57/22/8 53/23/8 59/75/8 55/74/8
f 38/77/9 58/78/9 52/26/9 44/25/9
f 36/79/10 42/80/10 43/81/10 37/82/10
f 47/62/12 36/61/12 37/70/12 45/69/12
f 34/65/11 50/33/11 48/32/11
f 40/72/6 43/71/6 42/60/6 41/59/6
f 54/66/13 34/65/13 48/32/13 56/34/13
f 38/77/14 44/25/14 46/9/14 39/68/14
f 40/72/22 54/66/22 56/34/22 45/69/22
f 45/69/16 56/34/16 57/22/16 55/74/16 54/66/16 40/72/16 41/59/16 47/62/16
f 52/35/17 58/83/17 59/75/17 53/23/17
f 60/84/12 66/85/12 65/86/12 62/87/12
f 62/87/12 65/86/12 64/88/12 63/89/12
f 63/89/12 64/88/12 73/90/12 61/91/12
f 61/92/12 73/93/12 66/94/12 60/95/12
f 66/85/1 69/96/1 71/97/1 68/98/1 65/86/1
f 65/86/14 68/98/14 67/99/14 64/88/14
f 75/100/10 76/101/10 71/97/10 69/96/10
f 73/90/6 75/100/6 69/96/6 66/85/6
f 72/102/17 70/103/17 73/90/17 64/88/17 67/99/17 74/104/17
f 72/102/12 76/101/12 75/100/12 70/103/12
f 70/103/12 75/100/12 73/90/12
f 72/102/12 74/104/12 76/101/12
f 74/104/12 67/99/12 68/98/12 71/97/12 76/101/12
f 50/33/23 34/65/23 35/64/23 51/58/23
