# Blender v2.93.4 OBJ File: ''
# www.blender.org
mtllib ghost.mtl
o Cube
v -0.773010 2.038805 -0.773010
v 0.773010 2.038805 -0.773010
v -0.854298 0.620488 -0.320729
v -0.854298 1.444702 -0.320729
v 1.000000 -1.716465 -1.000000
v 1.000000 1.716465 -1.000000
v -0.999690 1.444702 -0.669258
v -0.999690 0.620488 -0.669258
v -0.854298 0.620488 -0.669258
v -0.854298 1.444702 -0.669258
v -0.999690 1.444702 -0.320729
v -0.999690 0.620488 -0.320729
v -1.000000 1.716465 -1.000000
v -1.000000 -1.716465 -1.000000
v 1.105617 -2.164000 -1.105617
v -1.105617 -2.164000 -1.105617
v -0.298353 0.512112 -1.000000
v -0.298353 -0.512112 -1.000000
v 0.298353 0.512112 -1.000000
v 0.298353 -0.512112 -1.000000
v 0.298353 -0.512112 -1.000000
v 0.298353 0.512112 -1.000000
v -0.298353 0.512112 -1.000000
v 0.298353 -0.512112 -1.663715
v 0.298353 0.512112 -1.663715
v -1.922458 0.512112 -1.000000
v -1.922458 -0.512112 -1.000000
v -1.922458 0.512112 -1.663715
v -1.922458 -0.512112 -1.663715
v -0.298353 -0.512112 -1.000000
v -0.298353 -0.512112 -1.663715
v -1.922458 -0.512112 -1.000000
v -1.922458 -0.512112 -1.663715
v -0.773010 2.038805 0.773010
v 0.773010 2.038805 0.773010
v -0.854298 0.620488 0.320729
v -0.854298 1.444702 0.320729
v 1.000000 -1.716465 1.000000
v 1.000000 1.716465 1.000000
v -0.999690 1.444702 0.669258
v -0.999690 0.620488 0.669258
v -0.854298 0.620488 0.669258
v -0.854298 1.444702 0.669258
v 1.000000 -1.716465 -0.000000
v -0.999690 1.444702 0.320729
v 1.000000 1.716465 -0.000000
v -0.999690 0.620488 0.320729
v -0.773010 2.038805 0.000000
v 0.773010 2.038805 -0.000000
v 0.001179 2.199874 -0.000000
v 0.001437 2.199874 -0.000000
v 1.105617 -2.164000 -0.000000
v -1.105617 -2.164000 0.000000
v -1.000000 1.716465 1.000000
v -1.000000 -1.716465 1.000000
v -1.000000 1.716465 0.000000
v -1.000000 -1.716465 0.000000
v 1.105617 -2.164000 1.105617
v -1.105617 -2.164000 1.105617
v -0.298353 0.512112 1.000000
v -0.298353 -0.512112 1.000000
v 0.298353 0.512112 1.000000
v 0.298353 -0.512112 1.000000
v 0.298353 -0.512112 1.000000
v 0.298353 0.512112 1.000000
v -0.298353 0.512112 1.000000
v 0.298353 -0.512112 1.663715
v 0.298353 0.512112 1.663715
v -1.922458 0.512112 1.000000
v -1.922458 -0.512112 1.000000
v -1.922457 0.512112 1.663715
v -1.922457 -0.512112 1.663715
v -0.298353 -0.512112 1.000000
v -0.298353 -0.512112 1.663715
v -1.922458 -0.512112 1.000000
v -1.922457 -0.512112 1.663715
vt 0.912129 0.684076
vt 0.912129 0.679747
vt 0.912129 0.679747
vt 0.912129 0.684076
vt 0.941176 0.726716
vt 0.941176 0.690873
vt 0.941176 0.690873
vt 0.941176 0.726716
vt 0.941176 0.601264
vt 0.941176 0.583343
vt 0.941176 0.583343
vt 0.941176 0.601264
vt 0.934380 0.679747
vt 0.934380 0.684076
vt 0.934380 0.684076
vt 0.934380 0.679747
vt 0.941176 0.601264
vt 0.905333 0.726716
vt 0.905333 0.690873
vt 0.905333 0.726716
vt 0.905333 0.690873
vt 0.905333 0.672951
vt 0.905333 0.672951
vt 0.905333 0.583343
vt 0.905333 0.601264
vt 0.905333 0.601264
vt 0.905333 0.583343
vt 0.769290 0.942805
vt 0.826220 0.942805
vt 0.826220 0.953881
vt 0.769290 0.953881
vt 0.941176 0.672951
vt 0.941176 0.672951
vt 0.941176 0.672951
vt 0.869490 0.672951
vt 0.869490 0.690873
vt 0.873024 0.128368
vt 0.873024 0.189456
vt 0.934112 0.189456
vt 0.934112 0.128368
vt 0.934112 0.189456
vt 0.934112 0.128368
vt 0.873024 0.189456
vt 0.873024 0.128368
vt 0.000000 0.000000
vt 0.000000 0.000000
vt 0.000000 0.000000
vt 0.000000 0.000000
vt 0.934112 0.189456
vt 0.934112 0.128368
vt 0.934112 0.128368
vt 0.873024 0.189456
vt 0.873024 0.128368
vt 0.873024 0.128368
vt 0.873024 0.128368
vt 0.873024 0.128368
vt 0.873024 0.128368
vt 0.977020 0.672951
vt 0.912129 0.684076
vt 0.912129 0.684076
vt 0.912129 0.679747
vt 0.912129 0.679747
vt 0.941176 0.726716
vt 0.941176 0.726716
vt 0.941176 0.690873
vt 0.941176 0.690873
vt 0.941176 0.583343
vt 0.941176 0.583343
vt 0.934380 0.679747
vt 0.934380 0.679747
vt 0.934380 0.684076
vt 0.934380 0.684076
vt 0.905333 0.726716
vt 0.905333 0.690873
vt 0.905333 0.690873
vt 0.905333 0.726716
vt 0.905333 0.583343
vt 0.905333 0.583343
vt 0.769290 0.942805
vt 0.769290 0.953881
vt 0.826220 0.953881
vt 0.826220 0.942805
vt 0.869490 0.690873
vt 0.873024 0.128368
vt 0.934112 0.128368
vt 0.934112 0.189456
vt 0.873024 0.189456
vt 0.934112 0.128368
vt 0.934112 0.189456
vt 0.873024 0.189456
vt 0.873024 0.128368
vt 0.000000 0.000000
vt 0.000000 0.000000
vt 0.000000 0.000000
vt 0.000000 0.000000
vt 0.934112 0.128368
vt 0.934112 0.128368
vt 0.934112 0.189456
vt 0.873024 0.189456
vt 0.873024 0.128368
vt 0.873024 0.128368
vt 0.873024 0.128368
vt 0.873024 0.128368
vt 0.873024 0.128368
vn 0.0000 1.0000 -0.0000
vn -0.0000 0.5758 -0.8176
vn 0.8176 0.5758 -0.0000
vn 0.0000 -1.0000 0.0000
vn 0.2043 0.9789 0.0000
vn -0.0000 0.0000 -1.0000
vn -0.0000 0.2297 -0.9733
vn -0.9733 0.2297 0.0000
vn 0.9733 0.2297 -0.0000
vn -1.0000 0.0000 0.0000
vn -0.2037 0.9790 0.0000
vn 0.0000 0.0000 1.0000
vn -0.8176 0.5758 0.0000
vn 1.0000 0.0000 -0.0000
vn -1.0000 -0.0011 0.0000
vn -1.0000 0.0001 0.0000
vn -0.0000 0.9790 -0.2040
vn 0.0000 0.5758 0.8176
vn 0.0000 0.2297 0.9733
vn 0.0000 0.9790 0.2040
usemtl Материал
s off
f 8/1/1 12/2/1 3/3/1 9/4/1
f 6/5/2 13/6/2 1/7/2 2/8/2
f 46/9/3 6/10/3 2/11/3 49/12/3
f 11/13/4 7/14/4 10/15/4 4/16/4
f 49/12/5 2/11/5 51/17/5
f 5/18/6 14/19/6 13/6/6 6/5/6
f 14/19/7 5/18/7 15/20/7 16/21/7
f 57/22/8 14/19/8 16/21/8 53/23/8
f 5/24/9 44/25/9 52/26/9 15/27/9
f 3/28/10 4/29/10 10/30/10 9/31/10
f 12/2/6 11/13/6 4/16/6 3/3/6
f 1/7/11 48/32/11 50/33/11
f 7/14/12 8/1/12 9/4/12 10/15/12
f 13/6/13 56/34/13 48/32/13 1/7/13
f 5/24/14 6/10/14 46/9/14 44/25/14
f 7/14/15 11/13/15 56/34/15 13/6/15
f 11/13/16 12/2/16 8/1/16 7/14/16 13/6/16 14/19/16 57/22/16 56/34/16
f 52/35/4 53/23/4 16/21/4 15/36/4
f 18/37/12 20/38/12 19/39/12 17/40/12
f 17/40/12 19/39/12 22/41/12 23/42/12
f 19/39/12 20/38/12 21/43/12 22/41/12
f 20/38/12 18/37/12 30/44/12 21/43/12
f 18/45/12 17/46/12 23/47/12 30/48/12
f 23/42/1 22/41/1 25/49/1 28/50/1 26/51/1
f 22/41/14 21/43/14 24/52/14 25/49/14
f 32/53/10 26/51/10 28/50/10 33/54/10
f 30/44/12 23/42/12 26/51/12 32/53/12
f 29/55/4 31/56/4 24/52/4 21/43/4 30/44/4 27/57/4
f 29/55/12 27/57/12 32/53/12 33/54/12
f 27/57/12 30/44/12 32/53/12
f 29/55/12 33/54/12 31/56/12
f 31/56/6 33/54/6 28/50/6 25/49/6 24/52/6
f 50/33/17 51/58/17 2/8/17 1/7/17
f 41/59/1 42/60/1 36/61/1 47/62/1
f 39/63/18 35/64/18 34/65/18 54/66/18
f 46/9/3 49/12/3 35/67/3 39/68/3
f 45/69/4 37/70/4 43/71/4 40/72/4
f 49/12/5 51/17/5 35/67/5
f 38/73/12 39/63/12 54/66/12 55/74/12
f 55/74/19 59/75/19 58/76/19 38/73/19
f 57/22/8 53/23/8 59/75/8 55/74/8
f 38/77/9 58/78/9 52/26/9 44/25/9
f 36/79/10 42/80/10 43/81/10 37/82/10
f 47/62/12 36/61/12 37/70/12 45/69/12
f 34/65/11 50/33/11 48/32/11
f 40/72/6 43/71/6 42/60/6 41/59/6
f 54/66/13 34/65/13 48/32/13 56/34/13
f 38/77/14 44/25/14 46/9/14 39/68/14
f 40/72/15 54/66/15 56/34/15 45/69/15
f 45/69/16 56/34/16 57/22/16 55/74/16 54/66/16 40/72/16 41/59/16 47/62/16
f 52/35/4 58/83/4 59/75/4 53/23/4
f 61/84/6 60/85/6 62/86/6 63/87/6
f 60/85/12 66/88/12 65/89/12 62/86/12
f 62/86/12 65/89/12 64/90/12 63/87/12
f 63/87/12 64/90/12 73/91/12 61/84/12
f 61/92/12 73/93/12 66/94/12 60/95/12
f 66/88/1 69/96/1 71/97/1 68/98/1 65/89/1
f 65/89/14 68/98/14 67/99/14 64/90/14
f 75/100/10 76/101/10 71/97/10 69/96/10
f 73/91/6 75/100/6 69/96/6 66/88/6
f 72/102/4 70/103/4 73/91/4 64/90/4 67/99/4 74/104/4
f 72/102/12 76/101/12 75/100/12 70/103/12
f 70/103/12 75/100/12 73/91/12
f 72/102/12 74/104/12 76/101/12
f 74/104/12 67/99/12 68/98/12 71/97/12 76/101/12
f 50/33/20 34/65/20 35/64/20 51/58/20
